<?xml version="1.0" encoding="utf-8"?>
<svg viewBox="76.891 100.746 377.8784 193.08" xmlns="http://www.w3.org/2000/svg">
  <g id="g1356" transform="matrix(11.057727813720703, 0, 0, 11.645588874816895, -6543.03173828125, -7365.31396484375)" style="">
    <text transform="matrix(0.1282559,0,0,0.1282559,596.92195,602.39965)" id="text3193-4-9-9-7-5-80-4-6-0" style="font-style:normal;font-variant:normal;font-weight:bold;font-stretch:normal;font-size:37.3333px;line-height:0;font-family:Calibri;-inkscape-font-specification:'Calibri Bold';letter-spacing:0.1px;text-orientation:upright;white-space:pre;shape-inside:url(#rect3195-9-4-4-2-7-9-0-64-0-4);display:inline;fill:#000000;fill-opacity:1;stroke:none;stroke-width:3.77953"><tspan x="130.23633" y="339.47981" id="tspan2152"><tspan style="font-family:Roboto;-inkscape-font-specification:'Roboto Bold'" id="tspan2148">Ultimate</tspan><tspan style="font-family:Bahnschrift;-inkscape-font-specification:'Bahnschrift Bold'" id="tspan2150">
</tspan></tspan></text>
    <text transform="matrix(0.1282559,0,0,0.1282559,597.06223,607.07218)" id="text3193-4-9-9-7-5-0-4-2-2-6" style="font-style:normal;font-variant:normal;font-weight:bold;font-stretch:normal;font-size:37.3333px;line-height:0;font-family:Calibri;-inkscape-font-specification:'Calibri Bold';letter-spacing:0.1px;text-orientation:upright;white-space:pre;shape-inside:url(#rect3195-9-4-4-2-7-6-5-3-68-0-7);display:inline;fill:#000000;fill-opacity:1;stroke:none;stroke-width:3.77953"><tspan x="130.23633" y="337.83918" id="tspan2156"><tspan style="font-family:Roboto;-inkscape-font-specification:'Roboto Bold'" id="tspan2154">Spider</tspan></tspan></text>
    <text transform="matrix(0.1282559,0,0,0.1282559,596.85415,612.15107)" id="text3193-4-9-9-7-5-0-4-2-2-6-6" style="font-style:normal;font-variant:normal;font-weight:bold;font-stretch:normal;font-size:37.3333px;line-height:0;font-family:Calibri;-inkscape-font-specification:'Calibri Bold';letter-spacing:0.1px;text-orientation:upright;white-space:pre;shape-inside:url(#rect3195-9-4-4-2-7-6-5-3-68-0-7-1);display:inline;fill:#000000;fill-opacity:1;stroke:none;stroke-width:3.77953"><tspan x="130.23633" y="337.83918" id="tspan2160"><tspan style="font-family:Roboto;-inkscape-font-specification:'Roboto Bold'" id="tspan2158">Monke</tspan></tspan></text>
    <path style="display:inline;fill:#000000;stroke:#000000;stroke-width:0.387797;stroke-linecap:round;stroke-dasharray:none;stroke-opacity:1" d="m 612.48733,642.50331 v 13.17892" id="path1112-7-9-1-5"/>
    <g id="g4858-8-0" transform="matrix(0.4847467,0,0,0.4847467,569.46959,616.54946)" style="display:inline;fill:#000000">
      <path style="display:inline;fill:#000000;fill-opacity:1;stroke-width:0.0362304" d="m 68.598033,75.790575 c -1.825369,-0.23267 -3.462026,-1.59974 -4.016485,-3.35491 -0.193769,-0.61339 -0.222741,-0.83764 -0.218853,-1.69397 0.0063,-1.38092 0.208982,-2.49241 0.654157,-3.586808 0.319662,-0.78584 0.683267,-1.393981 1.577579,-2.638554 0.740744,-1.030859 0.956011,-1.494221 0.996581,-2.145132 0.04668,-0.748957 -0.24088,-1.490951 -0.791029,-2.041099 -0.547895,-0.547895 -1.35771,-0.655665 -2.05896,-0.801714 -0.223697,-0.04659 -0.408948,-0.216866 -0.40961,-0.549651 -0.01511,-0.355885 0.240015,-0.529862 0.41714,-0.537116 1.158088,-0.04743 2.076894,0.377184 2.813173,1.115716 1.087176,1.090503 1.415587,2.687863 0.83791,4.075505 -0.163904,0.393716 -0.445177,0.85144 -0.991891,1.614134 -1.041932,1.453547 -1.370055,2.07713 -1.671268,3.176169 -0.20661,0.75386 -0.282182,1.35557 -0.286648,2.28232 -0.0034,0.70772 0.005,0.83159 0.07495,1.10503 0.417129,1.63034 1.792197,2.80234 3.428762,2.92241 l 0.31928,0.0234 -0.25976,-0.25014 c -1.279922,-1.23253 -1.750781,-3.20007 -1.148,-4.79706 0.306233,-0.81132 0.597321,-1.22013 1.59915,-2.245901 1.218969,-1.248098 1.577316,-1.854398 2.288713,-2.941943 0.462902,-0.707659 0.716145,-1.223651 1.088377,-1.991494 0.643555,-1.327531 0.398237,-3.194057 0.498261,-3.614454 0.111232,-0.467505 0.172905,-0.474036 1.374369,-0.473857 l 1.418731,2.11e-4 c 2.122866,-0.01914 2.403575,0.01919 2.937576,0.198447 0.824447,0.276758 1.564374,0.847028 2.041177,1.573159 0.121878,0.18561 0.221597,0.351993 0.221597,0.369739 0,0.01861 -1.287935,0.03226 -3.043353,0.03226 h -3.043354 v 0.543456 0.543456 l 0.09963,6.3e-4 c 0.210428,0.0013 0.618065,0.112595 0.878587,0.239814 0.369827,0.180595 0.770731,0.582509 0.955454,0.95786 0.240838,0.489376 0.238821,0.458873 0.23952,3.622333 l 6.29e-4,2.846071 -0.280785,0.0471 c -0.535964,0.0899 -1.213264,0.36145 -1.670239,0.66961 -0.106618,0.0719 -0.200364,0.13072 -0.208325,0.13072 -0.008,0 -0.01448,-0.44835 -0.01448,-0.99634 v -0.99633 H 74.70284 74.159384 v 1.54155 1.54156 l -0.234127,0.32605 c -0.231336,0.32218 -0.744093,1.12795 -0.744093,1.16931 0,0.0211 0.852428,0.60248 0.88331,0.60248 0.0088,0 0.119155,-0.16712 0.245336,-0.37137 1.023416,-1.6566 2.265775,-2.59579 3.437829,-2.5989 0.909976,-0.002 1.629061,0.64437 1.798578,1.61773 0.117885,0.67689 -0.01045,1.09584 -0.461922,1.50788 -0.291124,0.26571 -0.689825,0.51233 -1.609829,0.99579 -0.852724,0.4481 -1.557963,0.84386 -1.930531,1.08335 l -0.300162,0.19295 -3.196071,-0.005 c -1.757839,-0.003 -3.310196,-0.0191 -3.449683,-0.0369 z m 9.444553,-0.29859 c 0.352312,-0.18721 0.781572,-0.42556 0.953911,-0.52965 0.557846,-0.33696 1.074418,-0.79556 1.301743,-1.15567 l 0.09933,-0.15735 0.282537,0.0163 c 0.655652,0.038 1.067081,0.4535 1.068807,1.07949 6.19e-4,0.22499 -0.01664,0.30714 -0.100337,0.47757 -0.114523,0.23322 -0.290058,0.40341 -0.531105,0.51494 -0.159597,0.0738 -0.221727,0.0766 -1.940167,0.0855 l -1.775289,0.009 z m 0.456171,-10.804706 -0.01373,-1.372814 -0.09963,-0.324286 c -0.114706,-0.37336 -0.321389,-0.78737 -0.530304,-1.062262 -0.07981,-0.105019 -0.145116,-0.198765 -0.145116,-0.208325 0,-0.0096 0.894801,-0.01738 1.988447,-0.01738 h 1.988446 l 0.02215,0.08152 c 0.01218,0.04484 0.03283,0.192617 0.04588,0.328404 l 0.02373,0.246885 0.205537,0.139578 c 0.383137,0.260183 0.684025,0.606074 0.823531,0.946705 0.04439,0.108379 0.06484,0.251291 0.06424,0.448849 -0.0012,0.407308 -0.137889,0.693953 -0.501247,1.051464 -0.693658,0.682497 -1.767077,1.04742 -3.217823,1.093944 l -0.640368,0.02053 z" id="path7460-0-8-7-8"/>
    </g>
  </g>
  <rect style="fill: rgb(255, 255, 255); fill-opacity: 0; stroke: none; stroke-width: 1.5; stroke-linejoin: round; stop-color: rgb(0, 0, 0);" id="rect786" width="377.648" height="193.08" x="76.891" y="100.746"/>
</svg>