<?xml version="1.0" encoding="utf-8"?>
<!-- Generator: Adobe Illustrator 16.0.3, SVG Export Plug-In . SVG Version: 6.00 Build 0)  -->
<!DOCTYPE svg PUBLIC "-//W3C//DTD SVG 1.1//EN" "http://www.w3.org/Graphics/SVG/1.1/DTD/svg11.dtd">
<svg version="1.1" xmlns="http://www.w3.org/2000/svg" xmlns:xlink="http://www.w3.org/1999/xlink" x="0px" y="0px"
	 width="1417.32px" height="1417.32px" viewBox="0 0 1417.32 1417.32" enable-background="new 0 0 1417.32 1417.32"
	 xml:space="preserve">
<g id="Capa_2" display="none">
	<g display="inline">
		<g>
			<path fill="#686874" d="M608.125,572.988c-1.381,0-2.5-1.119-2.5-2.5v-86.375c0-1.381,1.119-2.5,2.5-2.5s2.5,1.119,2.5,2.5
				v86.375C610.625,571.869,609.505,572.988,608.125,572.988z"/>
		</g>
		<g>
			<path fill="#686874" d="M631.127,559.988c-1.381,0-2.5-1.119-2.5-2.5v-62.375c0-1.381,1.119-2.5,2.5-2.5s2.5,1.119,2.5,2.5
				v62.375C633.627,558.869,632.508,559.988,631.127,559.988z"/>
		</g>
		<g>
			<path fill="#686874" d="M649.116,543.613c-1.381,0-2.5-1.119-2.5-2.5v-29.225c0-1.381,1.119-2.5,2.5-2.5s2.5,1.119,2.5,2.5
				v29.225C651.616,542.494,650.497,543.613,649.116,543.613z"/>
		</g>
		<g>
			<path fill="#686874" d="M585.082,560.57c-1.381,0-2.5-1.119-2.5-2.5v-62.375c0-1.381,1.119-2.5,2.5-2.5s2.5,1.119,2.5,2.5v62.375
				C587.582,559.451,586.462,560.57,585.082,560.57z"/>
		</g>
		<g>
			<path fill="#686874" d="M567.119,544.413c-1.381,0-2.5-1.119-2.5-2.5v-29.225c0-1.381,1.119-2.5,2.5-2.5s2.5,1.119,2.5,2.5
				v29.225C569.619,543.293,568.5,544.413,567.119,544.413z"/>
		</g>
	</g>
	<g display="inline">
		<path fill="#4A4A59" d="M483.059,626.879c6.314,0,11.498,2.112,15.552,6.336c3.968,4.096,5.952,9.216,5.952,15.36
			c0,6.144-1.984,11.264-5.952,15.359c-4.054,4.225-9.238,6.336-15.552,6.336c-6.315,0-11.499-2.111-15.552-6.336
			c-3.968-4.096-5.952-9.216-5.952-15.359c0-6.145,1.984-11.265,5.952-15.36C471.56,628.991,476.744,626.879,483.059,626.879z
			 M483.059,665.599c5.034,0,9.109-1.642,12.224-4.928c2.986-3.157,4.48-7.189,4.48-12.096s-1.494-8.938-4.48-12.097
			c-3.115-3.285-7.19-4.928-12.224-4.928c-5.035,0-9.11,1.643-12.224,4.928c-2.987,3.158-4.48,7.19-4.48,12.097
			s1.493,8.938,4.48,12.096C473.949,663.958,478.024,665.599,483.059,665.599z"/>
		<path fill="#4A4A59" d="M548.787,627.391v42.368h-5.568l-26.176-35.776v35.776h-4.8v-42.368h5.568l26.176,35.648v-35.648H548.787z
			"/>
		<path fill="#4A4A59" d="M564.018,633.887c-0.811,0.704-1.355,1.483-1.632,2.336c-0.278,0.854-0.416,1.76-0.416,2.72
			s0.416,1.847,1.248,2.656c0.832,0.812,1.93,1.494,3.296,2.048c1.365,0.556,2.922,1.046,4.672,1.473
			c1.749,0.427,3.53,0.863,5.344,1.312c1.813,0.448,3.594,0.96,5.344,1.536c1.749,0.576,3.306,1.312,4.672,2.208
			c3.029,1.92,4.544,4.544,4.544,7.872c0,3.968-1.483,6.998-4.448,9.088c-2.966,2.091-7.072,3.136-12.32,3.136
			c-5.931,0-10.454-1.236-13.568-3.712c-2.774-2.218-4.352-5.376-4.736-9.472h4.992c0.17,2.902,1.578,5.12,4.224,6.656
			c2.304,1.322,5.354,1.983,9.152,1.983c7.936,0,11.904-2.496,11.904-7.487c0-1.706-0.715-3.051-2.144-4.032
			c-1.43-0.981-3.222-1.792-5.376-2.433c-2.155-0.64-4.48-1.236-6.976-1.792c-2.496-0.554-4.822-1.269-6.976-2.144
			c-2.155-0.874-3.947-2.026-5.376-3.456c-1.43-1.429-2.144-3.36-2.144-5.792c0-3.456,1.322-6.272,3.968-8.448
			c2.645-2.176,6.634-3.264,11.968-3.264c5.376,0,9.536,1.238,12.48,3.712c2.688,2.176,4.117,4.971,4.288,8.384h-4.928
			c-0.427-3.498-2.688-5.824-6.784-6.976c-1.451-0.426-3.254-0.64-5.408-0.64c-2.155,0-3.968,0.246-5.44,0.736
			C565.97,632.586,564.828,633.183,564.018,633.887z"/>
		<path fill="#4A4A59" d="M628.21,632h-14.784v37.76h-4.8V632h-14.784v-4.608h34.368V632z"/>
		<path fill="#4A4A59" d="M667.505,669.759h-5.312l-5.184-12.288h-20.992l-5.184,12.288h-5.312l17.984-42.368h6.016L667.505,669.759
			z M655.154,653.055l-8.64-20.672l-8.64,20.672H655.154z"/>
		<path fill="#4A4A59" d="M681.586,628.575c2.56-1.13,5.205-1.696,7.936-1.696c2.73,0,5.098,0.299,7.104,0.896
			c2.005,0.598,3.818,1.408,5.44,2.432c3.37,2.176,5.845,5.078,7.423,8.704h-5.247c-1.28-2.305-3.063-4.106-5.344-5.408
			c-2.283-1.301-4.875-1.952-7.776-1.952c-2.902,0-5.376,0.438-7.424,1.312c-2.048,0.875-3.776,2.08-5.184,3.616
			c-2.902,3.158-4.352,7.19-4.352,12.097c0,4.949,1.429,8.981,4.288,12.096c3.029,3.286,7.04,4.928,12.032,4.928
			c4.01,0,7.466-1.237,10.368-3.712c3.072-2.602,4.608-6.037,4.608-10.304H689.97v-4.353h19.904v22.528h-4.416v-7.488
			c-2.432,3.67-5.803,6.123-10.112,7.36c-1.579,0.426-3.659,0.64-6.24,0.64c-2.582,0-5.152-0.564-7.712-1.695
			s-4.736-2.678-6.528-4.641c-3.67-4.01-5.504-9.13-5.504-15.359c0-6.145,1.898-11.265,5.696-15.36
			C676.85,631.253,679.026,629.706,681.586,628.575z"/>
		<path fill="#4A4A59" d="M723.122,632v14.208h23.552v4.672h-23.552v14.271h26.367v4.608h-31.168v-42.368h31.168V632H723.122z"/>
	</g>
	<circle display="inline" fill="#9066E6" cx="504.124" cy="405.32" r="14.173"/>
	<circle display="inline" fill="#C0ABE9" cx="532.47" cy="405.32" r="14.173"/>
	<circle display="inline" fill="#4A4A59" cx="560.815" cy="405.32" r="14.173"/>
	<circle display="inline" fill="#7251B4" cx="589.161" cy="405.32" r="14.173"/>
	<circle display="inline" fill="#686874" cx="617.508" cy="405.32" r="14.173"/>
	<circle display="inline" fill="#4A4A59" cx="645.854" cy="405.32" r="14.173"/>
	<circle display="inline" cx="674.199" cy="405.32" r="14.173"/>
	<circle display="inline" cx="702.545" cy="405.32" r="14.173"/>
</g>
<g id="Capa_1" display="none">
	<g display="inline">
		<path fill-rule="evenodd" clip-rule="evenodd" fill="none" d="M105.633,631.4c0-65.515,0-131.03,0-196.545
			c0-1.167,0.073-2.34-0.024-3.499c-0.073-0.872,0.155-1.099,1.026-1.027c1.159,0.098,2.332,0.024,3.499,0.024
			c43.843,0,87.686,0,131.53,0c-0.264,0.333-0.591,0.99-0.781,0.952c-2.662-0.531-5.105,0.538-7.569,1.102
			c-4.968,1.136-9.901,2.53-14.611,4.468c-7.397,3.044-14.299,7.167-20.273,12.399c-6.488,5.684-12.72,11.797-17.348,19.21
			c-3.106,4.976-6.238,9.99-7.434,15.882c-1.184,2.24-1.266,4.789-2.013,7.148c-0.604,1.906-1.831,3.762-1.881,5.664
			c-0.1,3.86-2.123,6.209-5.019,8.198c-1.817,1.248-3.597,2.551-5.41,3.806c-0.761,0.527-0.579,0.906,0.029,1.436
			c0.504,0.438,0.766,0.871,1.462,0.152c0.508-0.524,1.359-1.073,2.018-1.028c1.994,0.136,2.323-2.864,4.47-2.213
			c0.114,1.782,0.229,3.563,0.341,5.345c0.01,0.166,0.001,0.333,0.001,0.499c0,3.668,0,7.334,0,11.002
			c0.333,1.506,0.984,3.027,0.92,4.517c-0.08,1.835,0.904,3.368,0.975,5.021c0.06,1.378,1.248,2.621,0.946,3.473
			c-0.384,1.086-1.953,1.731-2.957,2.626c-0.857,0.766-1.72,1.555-2.412,2.462c-0.293,0.384-0.414,1.284-0.167,1.62
			c0.523,0.71,1.142,1.782,2.323,1.125c1.081-0.6,2.223-1.222,3.053-2.103c0.898-0.954,1.284-0.369,1.78,0.235
			c0.538,0.655,1.028,1.35,1.539,2.028c-0.514,1.707,0.754,3.006,1.095,4.519c0.322,1.431,1.995,3.109,1.591,4.023
			c-0.637,1.441-2.502,2.351-3.874,3.452c-0.481,0.387-1.053,0.978-1.561,0.956c-1.997-0.086-0.999,2.155-2.183,2.624
			c1.228,0.059,2.462,0.202,3.682,0.127c0.371-0.023,0.705-0.65,1.055-1.001c0.584-0.585,1.144-1.198,1.759-1.749
			c1.573-1.412,2.549-1.376,4.075,0.217c0.535,0.559,0.849,1.327,1.376,1.895c0.951,1.022,1.986,1.966,2.987,2.942
			c0.116,0.616,0.072,1.329,0.375,1.833c2.118,3.539,5.234,6.21,8.077,9.12c3.545,3.629,3.404,2.357-0.116,6.341
			c-1.106,1.251-2.926,1.382-3.685,3.344c-0.658,1.7-2.707,2.839-4.042,4.316c-0.351,0.388-0.643,1.334-0.425,1.633
			c0.654,0.9,1.334,0.359,2.008-0.248c2.772-2.497,5.625-4.903,8.376-7.423c2.578-2.362,3.298-2.507,6.168-0.661
			c0.801,0.514,1.515,1.162,2.269,1.75c4.33,4.013,9.737,6.253,14.836,9c1.466,0.79,1.691,1.476,0.354,2.212
			c-1.71,0.942-2.367,2.723-3.747,3.877c-0.146,0.122-0.21,0.625-0.151,0.658c0.262,0.144,0.581,0.233,0.883,0.247
			c2.339,0.108,3.692-1.844,5.132-3.041c1.813-1.507,3.465-2.249,5.698-1.952c0.263,0.333,0.457,0.833,0.799,0.975
			c4.228,1.751,8.53,3.21,13.205,3.026c1.021,0.333,2.031,0.91,3.064,0.955c2.974,0.13,5.958,0.046,8.938,0.046
			c2.828,0,5.664-0.125,8.483,0.034c2.942,0.167,5.587-1.796,8.572-1.035c6.982-2.414,14.29-3.927,20.874-7.444
			c2.053-1.097,3.971-2.445,6.023-3.543c4.939-2.645,9.456-5.842,13.391-9.845c3.205-3.26,6.423-6.475,9.243-10.123
			c2.803-3.625,5.288-7.368,7.496-11.386c2.909-5.292,4.873-11.141,8.946-15.765c1.734-1.969,3.599-3.823,5.33-5.794
			c0.364-0.415,0.736-1.333,0.532-1.641c-0.586-0.89-1.292-0.47-2.014,0.128c-0.962,0.798-2.033,1.478-3.112,2.115
			c-0.359,0.212-0.887,0.137-1.337,0.192c0.081-0.354,0.188-0.702,0.238-1.06c0.131-0.948,0.238-1.899,0.354-2.85
			c0.439-0.953,1.998-7.225,1.999-8.096c0.003-3.636,0.001-7.272,0.001-10.908c0.786-1.42,1.598-2.673,3.431-3.1
			c0.661-0.154,1.24-1.389,1.526-2.242c0.408-1.213-0.322-1.918-1.563-1.637c-0.586,0.132-1.16,0.438-1.669,0.773
			c-1.487,0.979-1.402,0.986-1.743-0.855c-0.404-2.182-1.044-4.28-1.112-6.572c-0.043-1.441-0.403-3.282-1.87-4.371
			c-0.266-1.381,0.313-2.758-0.581-4.217c-0.95-1.55-0.808-3.342,0.94-4.693c1.161-0.898,2.178-2.013,3.126-3.142
			c0.314-0.375,0.216-1.096,0.307-1.659c-0.618-0.098-1.414-0.484-1.818-0.236c-1.075,0.662-1.971,1.61-2.958,2.421
			c-0.871,0.713-1.383,0.914-2.079-0.463c-1.545-3.053-2.511-6.444-4.939-9.016c0.73-2.048-1.316-2.854-2.106-4.031
			c-3.153-4.692-5.987-9.731-10.897-12.973c-2.87-3.516-5.661-7.12-10.002-9.002c-0.578-1.213-1.767-2.168,0.037-3.658
			c2.662-2.198,4.967-4.831,7.404-7.297c0.562-0.568,1.208-1.146,1.506-1.85c0.218-0.517,0.148-1.612-0.176-1.804
			c-0.62-0.368-1.612-0.544-2.264-0.301c-0.704,0.262-1.195,1.095-1.779,1.679c-2.569,2.569-5.127,5.148-7.71,7.703
			c-1.741,1.722-1.733,1.674-3.799,0.265c-1.563-1.066-3.183-2.058-5.222-1.739c-0.347-0.514-0.579-1.29-1.06-1.503
			c-6.061-2.691-11.877-6.273-18.945-5.498c-1.623-1.568-3.622-2.029-5.8-2.005c-1.977,0.022-3.958,0.063-5.93-0.041
			c-0.44-0.022-0.85-0.621-1.273-0.955c46.677,0,93.354,0.013,140.032-0.051c1.734-0.002,2.052,0.318,2.051,2.051
			c-0.059,74.517-0.05,149.034-0.052,223.551c0,2.489-0.011,2.499-2.499,2.499c-89.854,0.002-179.708,0.002-269.561,0.002
			c-6.835,0-13.671-0.05-20.504,0.044c-1.325,0.018-1.573-0.218-1.545-1.545c0.108-5.166,0.044-10.334,0.044-15.503
			c0.334,0.264,0.899,0.479,0.966,0.798c1.195,5.74,5.039,9.27,9.64,12.474c2.346,1.634,4.99,1.778,7.44,2.558
			c2.116,0.673,4.841,0.777,7.02-0.827c6.118-0.415,9.82-4.542,12.861-9.069c3.635-5.411,4.162-11.539,2.065-17.755
			c-1.647-4.884-4.754-8.846-9.308-11.094c-5.876-2.902-10.124-3.414-16.98-1.414c-6.487,1.894-9.775,6.664-12.685,12.049
			C106.262,629.845,107.306,631.222,105.633,631.4z M190.652,636.692c0-5.16,0-10.321,0-15.48c0-1-0.099-2.01,0.022-2.994
			c0.201-1.633-0.574-1.882-1.992-1.851c-3.73,0.081-3.011-0.167-3.021,2.783c-0.028,8.323-0.01,16.646-0.01,24.968
			c0,1.165,0.031,2.333-0.023,3.495c-0.012,0.271-0.311,0.528-0.479,0.791c-0.167-0.264-0.324-0.534-0.5-0.792
			c-1.242-1.816-2.437-3.667-3.744-5.438c-5.744-7.781-11.594-15.485-17.228-23.344c-1.209-1.689-2.213-2.692-4.444-2.49
			c-3.106,0.281-3.56,0.532-3.58,3.833c-0.033,5.327-0.009,10.653-0.009,15.979c0,5.993-0.013,11.984,0.007,17.977
			c0.007,2.256,0.042,2.256,2.503,2.277c0.333,0.002,0.666,0.002,0.999,0c2.444-0.021,2.482-0.021,2.486-2.294
			c0.016-9.155-0.001-18.31,0.028-27.464c0.002-0.407,0.332-0.812,0.508-1.218c0.235,0.235,0.506,0.444,0.701,0.71
			c1.774,2.425,3.421,4.954,5.321,7.273c5.836,7.127,10.854,14.857,16.475,22.14c0.315,0.409,0.921,0.73,1.438,0.817
			c0.809,0.136,1.685-0.096,2.485,0.062c2.035,0.402,2.107-0.685,2.087-2.262C190.606,648.344,190.652,642.518,190.652,636.692z
			 M368.692,636.801c0,5.997,0.04,11.993-0.03,17.99c-0.016,1.352,0.457,1.645,1.707,1.638c8.828-0.045,17.656-0.063,26.484,0.014
			c1.589,0.014,1.913-0.531,1.877-1.983c-0.093-3.69,0.196-3.036-2.765-3.048c-5.83-0.023-11.66-0.001-17.489-0.009
			c-3.773-0.006-3.773-0.015-3.782-4.004c-0.001-0.333-0.015-0.667,0.002-0.999c0.113-2.284,0.233-4.567,0.351-6.85
			c2.145-0.049,4.29-0.129,6.435-0.141c4.165-0.022,8.33,0.048,12.493-0.029c2.155-0.041,2.761-1.081,2.752-3.629
			c-0.007-2.152-1.537-1.238-2.472-1.317c-1.488-0.125-2.995-0.033-4.494-0.033c-4.331,0-8.668-0.138-12.989,0.062
			c-1.98,0.091-2.324-0.651-2.084-2.279c0.048-0.326,0.002-0.665,0.007-0.998c0.048-3.145,0.098-6.29,0.146-9.434
			c3.115-0.118,6.231-0.247,9.348-0.348c1.165-0.037,2.332-0.006,3.498-0.006c3.164,0,6.33-0.027,9.494,0.017
			c0.962,0.013,1.625-0.115,1.525-1.29c-0.042-0.496-0.061-1.006,0.003-1.497c0.208-1.599-0.065-2.333-2.072-2.295
			c-8.158,0.154-16.322,0.046-24.483,0.074c-2.828,0.011-3.431,0.606-3.449,3.405C368.666,625.475,368.692,631.138,368.692,636.801z
			 M358.69,646.146c0-2.997-0.029-5.995,0.015-8.991c0.017-1.131-0.066-1.818-1.551-1.79c-4.993,0.096-9.99,0.1-14.983-0.001
			c-1.562-0.032-1.544,0.78-1.486,1.843c0.059,1.08-0.401,2.327,1.598,2.238c3.489-0.155,6.99-0.062,10.487-0.035
			c1.911,0.014,2.153,0.347,1.92,2.36c-0.449,3.895-4.461,8.016-8.631,9.703c-4.014,1.624-7.878,1.082-11.664-0.136
			c-3.875-1.246-6.247-4.583-7.546-8.1c-0.95-2.573-1.531-5.53-1.217-8.521c0.375-3.576,2.97-8.278,5.718-10.582
			c2.062-1.728,4.077-3.076,6.867-2.769c2.569-2.506,5.13-0.107,7.672,0.077c3.125,0.227,5.266,2.298,6.703,4.839
			c0.518,0.915,0.866,1.135,1.716,1.122c1.165-0.019,2.335,0.056,3.495-0.022c1.125-0.075,0.53-0.485,0.305-1.141
			c-0.856-2.483-3.047-3.77-4.66-5.56c-2.713-3.011-6.252-4.185-10.204-4.276c-1.997-0.046-4.006,0.121-5.991-0.042
			c-2.208-0.183-3.965,0.653-5.803,1.72c-6.554,3.805-9.949,9.509-10.802,16.95c-0.323,2.823,0.522,5.433,1.091,8.068
			c0.855,3.965,2.828,7.578,6.147,9.873c4.648,3.214,11.309,6.067,18.949,2.815c1.435-0.61,3.022-0.707,4.155-2.101
			c0.952-1.169,2.308-2.01,3.485-2.997c0.071,1.469,0.209,2.938,0.192,4.406c-0.013,1.133,0.506,1.312,1.503,1.335
			c2.469,0.06,2.489,0.114,2.514-2.295C358.711,651.473,358.69,648.809,358.69,646.146z M216.79,657.759
			c2.509-0.495,4.673-0.992,6.861-1.336c2.744-0.432,4.939-1.625,7.103-3.467c3.966-3.382,4.239-11.102-0.511-14.398
			c-1.884-1.307-4.018-2.422-6.201-3.091c-4.015-1.23-8.183-1.956-12.225-3.111c-2.122-0.606-4.416-1.546-5.088-3.88
			c-0.681-2.369,0.314-4.321,2.263-6.062c1.371-1.225,2.92-0.484,4.074-1.099c2.533-1.349,4.826-1.534,7.216,0.083
			c3.525-0.814,4.82,2.237,6.828,4.005c0.415,0.365,0.418,1.161,0.749,1.667c0.805,1.234,2.016,1.7,3.389,1.207
			c1.357-0.486,1.832-2.167,1.036-3.733c-1.959-3.855-4.929-6.76-9.081-7.992c-1.92-0.57-4.035-0.386-6.075-1.018
			c-1.3-0.402-3.011,0.792-4.544,0.812c-4.075,0.056-7.025,2.083-9.406,5.07c-2.778,3.485-1.83,10.881,2.797,13.203
			c4.721,2.369,9.672,3.303,14.554,4.734c2.598,0.762,5.062,1.641,7.038,3.509c0.531,0.501,0.958,1.314,1.057,2.035
			c0.408,2.989-1.488,5.333-4.479,6.562c-3.004,1.234-6.124,1.288-9.09,0.823c-3.041-0.476-6.343-1.074-8.266-4.182
			c-0.509-0.824-1.319-1.374-1.196-2.546c0.036-0.343-0.631-0.959-1.087-1.104c-0.605-0.193-1.318-0.062-1.985-0.045
			c-1.859,0.044-2.225,0.398-1.841,2.42c0.754,3.979,3.712,6.612,6.807,8.414C210.214,656.83,213.769,657.002,216.79,657.759z
			 M296.206,616.396c-3.495-0.005-4.788,0.573-5.43,3.74c-0.697,3.44-2.68,6.23-3.864,9.407c-2.037,5.467-4.82,10.656-6.865,16.12
			c-0.87,2.325-1.929,4.528-2.903,6.789c-1.406,3.258-0.843,4.069,2.66,3.939c0.715-0.026,1.885,0.43,1.844-0.904
			c-0.099-3.179,3.021-5.069,3.118-8.24c0.041-1.33,1.414-1.908,2.942-1.875c4.325,0.092,8.652,0.032,12.979,0.032
			c5.168,0,5.333,0.137,7.001,5.452c0.275,0.878,0.732,1.703,0.978,2.587c0.633,2.278,1.926,3.405,4.42,2.992
			c1.305-0.217,2.072-1.011,1.578-2.208c-1.761-4.263-3.541-8.52-5.417-12.731c-1.44-3.233-3.54-6.27-4.394-9.635
			c-0.597-2.355-1.876-4.243-2.661-6.415c-0.835-2.312-1.792-4.585-2.819-6.818C298.724,617.217,297.941,615.768,296.206,616.396z
			 M258.668,639.403c0-2.501-0.044-5.001,0.011-7.501c0.074-3.453,0.224-6.904,0.341-10.356c3.313-0.05,6.626-0.101,9.939-0.148
			c2.723-0.038,2.711-0.037,2.715-2.582c0.004-2.897,0.048-2.411-2.377-2.417c-2.333-0.008-4.667-0.002-7.001-0.002
			c-7,0-14.001,0.021-21.002-0.017c-1.62-0.009-2.371,0.882-2.606,2.27c-0.253,1.494,0.87,2.691,2.604,2.728
			c3.166,0.068,6.337,0.103,9.5-0.016c1.555-0.059,1.917,0.47,1.908,1.955c-0.063,9.334-0.032,18.669-0.032,28.003
			c0,1.167,0.092,2.342-0.023,3.498c-0.142,1.412,0.526,1.691,1.733,1.602c0.995-0.073,2.002-0.063,2.999-0.002
			c1.16,0.071,1.319-0.527,1.311-1.514C258.647,649.738,258.668,644.57,258.668,639.403z"/>
		<path fill-rule="evenodd" clip-rule="evenodd" fill="#9066E6" d="M173.648,484.367c1.196-5.892,4.327-10.906,7.434-15.882
			c4.628-7.414,10.859-13.526,17.348-19.21c5.974-5.231,12.876-9.354,20.273-12.399c4.71-1.938,9.643-3.332,14.611-4.468
			c2.464-0.563,4.908-1.633,7.569-1.102c0.189,0.038,0.517-0.618,0.781-0.952c4.001,0,8.001,0,12.002,0
			c-0.462,0.629-0.806,1.422-1.408,1.86c-2.887,2.1-5.81,4.156-8.793,6.116c-1.159,0.762-2.04,1.515-1.801,3.027
			c-0.664,0-1.411-0.202-1.978,0.031c-4.845,1.995-10.039,2.74-14.943,4.784c-8.063,3.361-15.238,7.812-21.825,13.413
			c-6.029,5.127-10.407,11.657-15.267,17.779c-1.082,0.149-2.21-0.33-3.226,0.659c-1,0.975-2.183,1.862-3.443,2.451
			C178.468,481.65,176.525,483.896,173.648,484.367z"/>
		<path fill-rule="evenodd" clip-rule="evenodd" fill="#4A4A59" d="M105.633,631.4c1.673-0.178,0.629-1.555,1.02-2.278
			c2.91-5.385,6.198-10.155,12.685-12.049c6.856-2,11.104-1.489,16.98,1.414c4.554,2.249,7.661,6.21,9.308,11.094
			c2.097,6.216,1.57,12.344-2.065,17.755c-3.041,4.527-6.743,8.654-12.861,9.069c-2.179,1.604-4.904,1.5-7.02,0.827
			c-2.451-0.78-5.095-0.923-7.44-2.558c-4.601-3.205-8.445-6.734-9.64-12.474c-0.066-0.319-0.632-0.535-0.966-0.798
			C105.633,638.068,105.633,634.733,105.633,631.4z M125.985,652.387c4.347,0.5,8.436-1.085,11.344-4.375
			c2.548-2.882,4.395-6.396,4.375-10.656c-0.023-5.102-1.618-9.214-5.316-12.858c-2.999-2.956-6.682-4.056-10.333-3.957
			c-8.882,0.244-15.239,6.885-15.489,15.988C110.338,644.784,117.266,652.986,125.985,652.387z"/>
		<path fill-rule="evenodd" clip-rule="evenodd" fill="#C0ABE9" d="M241.664,441.357c-0.238-1.512,0.643-2.266,1.801-3.027
			c2.983-1.959,5.906-4.016,8.793-6.116c0.602-0.438,0.945-1.23,1.408-1.86c1.334,0,2.667,0,4.001,0
			c0.423,0.333,0.833,0.932,1.273,0.955c1.972,0.104,3.953,0.063,5.93,0.041c2.179-0.023,4.178,0.438,5.8,2.005
			c-2.734,2.966-6.656,4.598-9.002,8.002c-2.315,0-4.636,0.1-6.941-0.045c-1.037-0.065-2.336-1.201-3.011-0.858
			C248.427,442.127,244.994,440.985,241.664,441.357z"/>
		<path fill-rule="evenodd" clip-rule="evenodd" fill="#7251B4" d="M334.685,531.377c-0.117,0.951-0.223,1.902-0.354,2.85
			c-0.049,0.357-0.157,0.706-0.238,1.06c0.451-0.056,0.979,0.02,1.337-0.192c1.079-0.637,2.149-1.317,3.112-2.115
			c0.721-0.598,1.427-1.018,2.014-0.128c0.204,0.309-0.167,1.226-0.532,1.641c-1.731,1.971-3.596,3.826-5.33,5.794
			c-4.073,4.624-6.037,10.473-8.946,15.765c-2.208,4.019-4.693,7.761-7.496,11.386c-2.82,3.647-6.038,6.863-9.243,10.123
			c-3.936,4.003-8.452,7.2-13.391,9.845c-2.052,1.098-3.97,2.446-6.023,3.543c-6.583,3.517-13.891,5.03-20.874,7.444
			c-2.984-0.762-5.629,1.202-8.572,1.035c-2.819-0.159-5.655-0.034-8.483-0.034c1.151-1.318,2.058-3.096,3.501-3.858
			c3.237-1.708,5.294-4.462,7.501-7.144c1.025-0.333,2.052-0.957,3.076-0.953c5.648,0.024,10.646-2.562,15.61-4.501
			c7.741-3.024,14.714-7.753,20.793-13.559c3.42-3.266,6.92-6.493,9.527-10.501c2.039-3.135,4.05-6.29,5.986-9.488
			c0.792-1.31,1.047-3.094,2.101-4.059c1.271-1.166,0.022-3.3,1.921-3.95c0.333-0.333,0.667-0.667,1-1
			C326.683,537.378,330.684,534.378,334.685,531.377z"/>
		<path fill-rule="evenodd" clip-rule="evenodd" fill="#4A4A59" d="M190.652,636.692c0,5.826-0.046,11.652,0.03,17.477
			c0.021,1.578-0.052,2.664-2.087,2.262c-0.801-0.157-1.676,0.074-2.485-0.062c-0.517-0.087-1.122-0.408-1.438-0.817
			c-5.621-7.283-10.638-15.012-16.475-22.14c-1.9-2.32-3.547-4.848-5.321-7.273c-0.194-0.266-0.465-0.475-0.701-0.71
			c-0.177,0.406-0.506,0.812-0.508,1.218c-0.029,9.154-0.013,18.309-0.028,27.464c-0.004,2.274-0.042,2.274-2.486,2.294
			c-0.333,0.002-0.666,0.002-0.999,0c-2.462-0.021-2.496-0.021-2.503-2.277c-0.02-5.992-0.007-11.984-0.007-17.977
			c0-5.326-0.024-10.653,0.009-15.979c0.021-3.3,0.474-3.551,3.58-3.833c2.231-0.202,3.235,0.801,4.444,2.49
			c5.634,7.859,11.484,15.563,17.228,23.344c1.307,1.77,2.501,3.622,3.744,5.438c0.176,0.258,0.334,0.528,0.5,0.792
			c0.167-0.263,0.466-0.52,0.479-0.791c0.054-1.162,0.023-2.33,0.023-3.495c0-8.322-0.019-16.645,0.01-24.968
			c0.01-2.95-0.708-2.702,3.021-2.783c1.418-0.031,2.193,0.218,1.992,1.851c-0.121,0.983-0.022,1.994-0.022,2.994
			C190.652,626.371,190.652,631.532,190.652,636.692z"/>
		<path fill-rule="evenodd" clip-rule="evenodd" fill="#4A4A59" d="M368.692,636.801c0-5.663-0.026-11.327,0.012-16.99
			c0.019-2.798,0.621-3.394,3.449-3.405c8.161-0.028,16.325,0.08,24.483-0.074c2.007-0.038,2.28,0.696,2.072,2.295
			c-0.063,0.491-0.045,1.001-0.003,1.497c0.1,1.174-0.563,1.302-1.525,1.29c-3.164-0.044-6.33-0.017-9.494-0.017
			c-1.166,0-2.333-0.031-3.498,0.006c-3.116,0.101-6.232,0.229-9.348,0.348c-0.049,3.145-0.099,6.29-0.146,9.434
			c-0.005,0.333,0.041,0.672-0.007,0.998c-0.24,1.627,0.104,2.37,2.084,2.279c4.321-0.199,8.658-0.062,12.989-0.062
			c1.499,0,3.006-0.092,4.494,0.033c0.935,0.079,2.465-0.835,2.472,1.317c0.009,2.548-0.597,3.588-2.752,3.629
			c-4.163,0.077-8.328,0.007-12.493,0.029c-2.145,0.012-4.29,0.092-6.435,0.141c-0.117,2.283-0.237,4.566-0.351,6.85
			c-0.017,0.332-0.003,0.666-0.002,0.999c0.009,3.989,0.009,3.998,3.782,4.004c5.829,0.008,11.659-0.015,17.489,0.009
			c2.961,0.013,2.672-0.642,2.765,3.048c0.036,1.452-0.288,1.997-1.877,1.983c-8.828-0.077-17.656-0.059-26.484-0.014
			c-1.25,0.007-1.723-0.286-1.707-1.638C368.732,648.794,368.692,642.798,368.692,636.801z"/>
		<path fill-rule="evenodd" clip-rule="evenodd" fill="#4A4A59" d="M358.69,646.146c0,2.664,0.021,5.327-0.006,7.991
			c-0.024,2.41-0.045,2.355-2.514,2.295c-0.997-0.023-1.516-0.202-1.503-1.335c0.017-1.468-0.121-2.938-0.192-4.406
			c-1.177,0.986-2.534,1.828-3.485,2.997c-1.133,1.394-2.721,1.491-4.155,2.101c-7.64,3.252-14.301,0.399-18.949-2.815
			c-3.319-2.294-5.292-5.908-6.147-9.873c-0.569-2.635-1.414-5.245-1.091-8.068c0.853-7.441,4.248-13.145,10.802-16.95
			c1.837-1.067,3.594-1.903,5.803-1.72c1.984,0.163,3.994-0.004,5.991,0.042c3.952,0.092,7.491,1.266,10.204,4.276
			c1.613,1.79,3.804,3.077,4.66,5.56c0.226,0.656,0.82,1.066-0.305,1.141c-1.16,0.078-2.33,0.004-3.495,0.022
			c-0.85,0.014-1.198-0.207-1.716-1.122c-1.437-2.541-3.578-4.612-6.703-4.839c-2.542-0.185-5.104-2.583-7.672-0.077
			c-2.79-0.307-4.805,1.042-6.867,2.769c-2.748,2.304-5.343,7.006-5.718,10.582c-0.314,2.99,0.267,5.948,1.217,8.521
			c1.299,3.517,3.671,6.854,7.546,8.1c3.785,1.217,7.65,1.759,11.664,0.136c4.169-1.687,8.182-5.808,8.631-9.703
			c0.232-2.014-0.01-2.347-1.92-2.36c-3.497-0.026-6.998-0.12-10.487,0.035c-1.999,0.089-1.539-1.159-1.598-2.238
			c-0.058-1.063-0.075-1.875,1.486-1.843c4.993,0.101,9.99,0.097,14.983,0.001c1.484-0.028,1.567,0.659,1.551,1.79
			C358.661,640.151,358.69,643.148,358.69,646.146z"/>
		<path fill-rule="evenodd" clip-rule="evenodd" fill="#4A4A59" d="M216.79,657.759c-3.021-0.757-6.575-0.93-9.304-2.519
			c-3.094-1.802-6.052-4.435-6.807-8.414c-0.383-2.022-0.018-2.376,1.841-2.42c0.667-0.017,1.38-0.148,1.985,0.045
			c0.456,0.145,1.123,0.761,1.087,1.104c-0.123,1.172,0.688,1.722,1.196,2.546c1.923,3.108,5.226,3.706,8.266,4.182
			c2.966,0.465,6.085,0.411,9.09-0.823c2.99-1.229,4.886-3.573,4.479-6.562c-0.099-0.721-0.526-1.534-1.057-2.035
			c-1.976-1.869-4.44-2.748-7.038-3.509c-4.882-1.431-9.833-2.365-14.554-4.734c-4.626-2.322-5.575-9.718-2.797-13.203
			c2.38-2.987,5.331-5.015,9.406-5.07c1.533-0.021,3.244-1.214,4.544-0.812c2.04,0.632,4.155,0.448,6.075,1.018
			c4.152,1.232,7.122,4.137,9.081,7.992c0.796,1.565,0.321,3.247-1.036,3.733c-1.374,0.493-2.584,0.027-3.389-1.207
			c-0.331-0.507-0.334-1.302-0.749-1.667c-2.008-1.768-3.303-4.819-6.828-4.005c-2.391-1.617-4.684-1.432-7.216-0.083
			c-1.154,0.615-2.703-0.126-4.074,1.099c-1.948,1.74-2.944,3.693-2.263,6.062c0.672,2.334,2.966,3.273,5.088,3.88
			c4.042,1.156,8.21,1.881,12.225,3.111c2.184,0.669,4.317,1.784,6.201,3.091c4.75,3.296,4.477,11.016,0.511,14.398
			c-2.163,1.842-4.358,3.036-7.103,3.467C221.462,656.767,219.298,657.264,216.79,657.759z"/>
		<path fill-rule="evenodd" clip-rule="evenodd" fill="#4A4A59" d="M296.206,616.396c1.736-0.628,2.519,0.82,3.167,2.23
			c1.027,2.233,1.984,4.506,2.819,6.818c0.785,2.171,2.064,4.06,2.661,6.415c0.854,3.365,2.953,6.402,4.394,9.635
			c1.877,4.212,3.657,8.469,5.417,12.731c0.494,1.198-0.273,1.992-1.578,2.208c-2.494,0.414-3.787-0.714-4.42-2.992
			c-0.246-0.885-0.703-1.709-0.978-2.587c-1.668-5.315-1.833-5.452-7.001-5.452c-4.327,0-8.654,0.06-12.979-0.032
			c-1.528-0.032-2.901,0.546-2.942,1.875c-0.097,3.171-3.217,5.061-3.118,8.24c0.042,1.334-1.128,0.878-1.844,0.904
			c-3.503,0.13-4.066-0.681-2.66-3.939c0.975-2.261,2.034-4.464,2.903-6.789c2.045-5.464,4.828-10.653,6.865-16.12
			c1.184-3.177,3.167-5.966,3.864-9.407C291.417,616.97,292.71,616.392,296.206,616.396z M295.059,640.402
			c2.153,0,4.307-0.028,6.458,0.011c1.255,0.023,1.281-0.804,1.131-1.623c-0.107-0.583-0.608-1.09-0.732-1.673
			c-0.836-3.945-3.695-7.097-4.303-11.157c-0.147-0.985-1.066-1.864-1.66-2.771c-0.178-0.271-0.46-0.474-0.694-0.708
			c-0.194,0.195-0.499,0.358-0.567,0.591c-1.639,5.606-4.404,10.766-6.465,16.206c-0.278,0.735-0.657,1.089,0.373,1.111
			C290.752,640.433,292.906,640.402,295.059,640.402z"/>
		<path fill-rule="evenodd" clip-rule="evenodd" fill="#4A4A59" d="M258.668,639.403c0,5.167-0.021,10.335,0.018,15.501
			c0.008,0.986-0.151,1.585-1.311,1.514c-0.997-0.061-2.004-0.071-2.999,0.002c-1.207,0.09-1.875-0.189-1.733-1.602
			c0.116-1.156,0.023-2.332,0.023-3.498c0-9.334-0.031-18.669,0.032-28.003c0.01-1.485-0.353-2.013-1.908-1.955
			c-3.163,0.118-6.334,0.084-9.5,0.016c-1.734-0.037-2.858-1.234-2.604-2.728c0.236-1.388,0.986-2.279,2.606-2.27
			c7.001,0.038,14.002,0.017,21.002,0.017c2.333,0,4.667-0.006,7.001,0.002c2.425,0.007,2.381-0.479,2.377,2.417
			c-0.004,2.544,0.008,2.543-2.715,2.582c-3.313,0.048-6.626,0.099-9.939,0.148c-0.117,3.452-0.267,6.903-0.341,10.356
			C258.624,634.401,258.668,636.902,258.668,639.403z"/>
		<path fill-rule="evenodd" clip-rule="evenodd" fill="#C0ABE9" d="M173.648,484.367c2.877-0.471,4.819-2.717,7.334-3.893
			c1.26-0.589,2.442-1.476,3.443-2.451c1.016-0.989,2.144-0.509,3.226-0.659c0.112,1.697-1.017,2.879-1.73,4.244
			c-4.06,7.771-6.473,16.031-7.272,24.763c-0.497,0-1.137-0.203-1.467,0.031c-3.208,2.282-6.364,4.637-9.536,6.97
			c0-0.166,0.009-0.333-0.001-0.499c-0.112-1.782-0.227-3.563-0.341-5.345c-2.147-0.65-2.476,2.349-4.47,2.213
			c-0.658-0.045-1.51,0.503-2.018,1.028c-0.697,0.719-0.958,0.286-1.462-0.152c-0.607-0.53-0.79-0.909-0.029-1.436
			c1.813-1.254,3.592-2.558,5.41-3.806c2.896-1.989,4.919-4.338,5.019-8.198c0.05-1.902,1.277-3.758,1.881-5.664
			C172.383,489.156,172.465,486.606,173.648,484.367z"/>
		<path fill-rule="evenodd" clip-rule="evenodd" fill="#4A4A59" d="M202.655,583.389c-0.754-0.587-1.468-1.236-2.269-1.75
			c-2.87-1.846-3.59-1.701-6.168,0.661c-2.751,2.52-5.604,4.927-8.376,7.423c-0.674,0.607-1.354,1.148-2.008,0.248
			c-0.218-0.299,0.075-1.245,0.425-1.633c1.335-1.477,3.385-2.616,4.042-4.316c0.759-1.961,2.579-2.092,3.685-3.344
			c3.52-3.984,3.661-2.712,0.116-6.341c-2.843-2.91-5.958-5.581-8.077-9.12c-0.302-0.505-0.258-1.217-0.375-1.833
			c1.708-1.542,3.404-3.098,5.133-4.618c0.58-0.51,1.243-0.925,1.868-1.383c1.334,1.167,3.07,2.096,3.927,3.546
			c2.724,4.61,7.204,7.511,10.585,11.458c2.267,0.47,3.355,2.262,4.493,4.001c-1.15,1.748-2.334,3.319-4.491,4.133
			C204.117,580.916,203.479,582.398,202.655,583.389z"/>
		<path fill-rule="evenodd" clip-rule="evenodd" fill="#9066E6" d="M202.655,583.389c0.824-0.991,1.461-2.474,2.51-2.869
			c2.157-0.813,3.341-2.385,4.491-4.133c1.698-0.138,2.938,0.9,4.213,1.737c5.803,3.814,12.183,6.294,18.792,8.266
			c-0.117,0.617-0.051,1.64-0.38,1.789c-2.936,1.327-4.766,3.772-6.621,6.213c-2.233-0.297-3.885,0.444-5.698,1.952
			c-1.44,1.196-2.793,3.149-5.132,3.041c-0.302-0.014-0.621-0.104-0.883-0.247c-0.059-0.033,0.006-0.536,0.151-0.658
			c1.38-1.154,2.037-2.935,3.747-3.877c1.337-0.737,1.112-1.422-0.354-2.212C212.393,589.642,206.985,587.402,202.655,583.389z"/>
		<path fill-rule="evenodd" clip-rule="evenodd" fill="#9066E6" d="M173.648,545.38c-0.511-0.678-1.001-1.373-1.539-2.028
			c-0.496-0.604-0.882-1.189-1.78-0.235c-0.831,0.881-1.973,1.503-3.053,2.103c-1.181,0.656-1.799-0.415-2.323-1.125
			c-0.248-0.336-0.127-1.235,0.167-1.62c0.692-0.907,1.555-1.696,2.412-2.462c1.004-0.896,2.572-1.54,2.957-2.626
			c0.301-0.852-0.887-2.094-0.946-3.473c-0.071-1.653-1.055-3.186-0.975-5.021c0.064-1.489-0.586-3.01-0.92-4.517
			c0.5,0,1.135,0.2,1.478-0.031c2.872-1.946,5.69-3.97,8.525-5.97c1.367,0.012,1.005,1.063,0.982,1.779
			c-0.176,5.614,0.807,10.992,2.989,16.178c0.534,1.269,0.696,2.695,1.03,4.049c-0.714,0.214-1.508,0.294-2.127,0.665
			C178.201,542.438,175.935,543.927,173.648,545.38z"/>
		<path fill-rule="evenodd" clip-rule="evenodd" fill="#9066E6" d="M325.683,473.364c2.428,2.572,3.394,5.963,4.939,9.016
			c0.696,1.377,1.208,1.176,2.079,0.463c0.987-0.811,1.883-1.759,2.958-2.421c0.404-0.248,1.201,0.139,1.818,0.236
			c-0.091,0.563,0.007,1.284-0.307,1.659c-0.949,1.129-1.965,2.244-3.126,3.142c-1.749,1.351-1.891,3.144-0.94,4.693
			c0.894,1.458,0.315,2.836,0.581,4.217c-1.697,1.531-3.556,2.921-5.039,4.636c-1.165,1.347-2.473,1.411-3.963,1.366
			c-0.296-3.768-3.05-11.957-5.555-17.125c-0.59-1.218-1.813-2.28-1.447-3.88C320.348,477.365,323.016,475.364,325.683,473.364z"/>
		<path fill-rule="evenodd" clip-rule="evenodd" fill="#4A4A59" d="M261.668,441.357c2.346-3.404,6.268-5.036,9.002-8.002
			c7.068-0.775,12.884,2.807,18.945,5.498c0.48,0.214,0.712,0.99,1.06,1.503c-2,2.333-4.001,4.668-6.001,7.001
			c-0.667,0-1.417,0.204-1.986-0.031C275.907,444.529,268.831,442.793,261.668,441.357z"/>
		<path fill-rule="evenodd" clip-rule="evenodd" fill="#7251B4" d="M173.648,545.38c2.287-1.454,4.552-2.942,6.875-4.336
			c0.62-0.371,1.414-0.451,2.127-0.665c1.825,5.239,4.485,10.064,7.291,14.824c0.379,0.643,0.481,1.449,0.711,2.179
			c-0.625,0.458-1.289,0.874-1.868,1.383c-1.729,1.52-3.425,3.076-5.133,4.618c-1-0.976-2.036-1.919-2.987-2.942
			c-0.528-0.568-0.842-1.336-1.376-1.895c-1.526-1.593-2.502-1.628-4.075-0.217c-0.615,0.551-1.174,1.163-1.759,1.749
			c-0.351,0.351-0.684,0.978-1.055,1.001c-1.22,0.075-2.454-0.068-3.682-0.127c1.184-0.469,0.186-2.709,2.183-2.624
			c0.508,0.022,1.08-0.568,1.561-0.956c1.372-1.101,3.237-2.01,3.874-3.452c0.404-0.915-1.269-2.592-1.591-4.023
			C174.403,548.387,173.134,547.087,173.648,545.38z"/>
		<path fill-rule="evenodd" clip-rule="evenodd" fill="#4A4A59" d="M325.683,473.364c-2.667,2-5.335,4.001-8.002,6.001
			c-4.001-5.334-8.002-10.669-12.003-16.003c2.334-2.333,4.667-4.668,7.001-7.002c4.91,3.241,7.744,8.28,10.897,12.973
			C324.367,470.51,326.413,471.316,325.683,473.364z"/>
		<path fill-rule="evenodd" clip-rule="evenodd" fill="#C0ABE9" d="M324.683,500.37c1.49,0.045,2.798-0.019,3.963-1.366
			c1.483-1.715,3.342-3.105,5.039-4.636c1.467,1.089,1.827,2.93,1.87,4.371c0.068,2.292,0.708,4.39,1.112,6.572
			c0.341,1.841,0.256,1.833,1.743,0.855c0.509-0.335,1.083-0.641,1.669-0.773c1.241-0.281,1.971,0.424,1.563,1.637
			c-0.286,0.853-0.865,2.087-1.526,2.242c-1.833,0.427-2.645,1.68-3.431,3.1c-3.485,2.52-6.953,5.056-9.829,8.301
			c-0.288,0.325-0.777,0.472-1.173,0.702c0.401-1.828-0.905-3.938,0.966-5.557c0.245-0.212,0.216-1.053,0.005-1.429
			c-1.885-3.361-0.752-6.989-0.892-10.481C325.708,502.53,325.209,501.496,324.683,500.37z"/>
		<path fill-rule="evenodd" clip-rule="evenodd" fill="#4A4A59" d="M325.683,521.375c0.396-0.229,0.885-0.376,1.173-0.702
			c2.876-3.245,6.344-5.781,9.829-8.301c0,3.636,0.002,7.272-0.001,10.908c-0.001,0.871-1.56,7.143-1.999,8.096
			c-4.001,3.001-8.002,6.001-12.003,9.002c0.401-1.825-0.933-3.965,1-5.512C323.735,530.279,326.103,526.033,325.683,521.375z"/>
		<path fill-rule="evenodd" clip-rule="evenodd" fill="#9066E6" d="M284.674,447.358c2-2.333,4-4.668,6.001-7.001
			c2.039-0.319,3.66,0.673,5.222,1.739c2.066,1.41,2.059,1.458,3.799-0.265c2.583-2.555,5.142-5.134,7.71-7.703
			c0.583-0.584,1.075-1.417,1.779-1.679c0.652-0.243,1.644-0.066,2.264,0.301c0.324,0.191,0.394,1.287,0.176,1.804
			c-0.298,0.705-0.944,1.282-1.506,1.85c-2.438,2.466-4.742,5.099-7.404,7.297c-1.804,1.489-0.615,2.445-0.037,3.658
			c-2.667,2-5.335,4.001-8.002,6.001c-0.492,0-1.091,0.185-1.457-0.029c-2.646-1.549-5.256-3.158-7.84-4.807
			C285.036,448.305,284.903,447.754,284.674,447.358z"/>
		<path fill-rule="evenodd" clip-rule="evenodd" fill="#C0ABE9" d="M225.66,594.392c1.855-2.441,3.685-4.886,6.621-6.213
			c0.329-0.148,0.263-1.171,0.38-1.789c0.999,0.333,1.994,0.94,2.997,0.951c3.794,0.043,7.426,1.67,11.282,1.077
			c0.689-0.106,1.72-0.349,1.725,0.973c-3,3.001-6.001,6.001-9.002,9.002c-4.674,0.185-8.977-1.274-13.205-3.026
			C226.117,595.225,225.923,594.725,225.66,594.392z"/>
		<path fill-rule="evenodd" clip-rule="evenodd" fill="#7251B4" d="M294.676,453.359c2.667-2,5.335-4.001,8.002-6.001
			c4.341,1.882,7.132,5.486,10.002,9.002c-2.334,2.334-4.667,4.668-7.001,7.002c-2.162-1.995-4.086-4.391-6.562-5.855
			C297.222,456.385,295.822,455.103,294.676,453.359z"/>
		<path fill-rule="evenodd" clip-rule="evenodd" fill="#4A4A59" d="M239.664,598.392c3-3,6.001-6.001,9.002-9.002
			c4.74,0.684,9.306-1.074,14.003-1c-2.207,2.682-4.264,5.436-7.501,7.144c-1.444,0.762-2.351,2.541-3.501,3.858
			c-2.98,0-5.964,0.084-8.938-0.046C241.695,599.302,240.684,598.726,239.664,598.392z"/>
		<path fill-rule="evenodd" clip-rule="evenodd" fill="#4A4A59" d="M177.649,518.374c-2.834,2-5.653,4.024-8.525,5.97
			c-0.343,0.231-0.978,0.031-1.478,0.031c0-3.668,0-7.334,0-11.002c3.171-2.333,6.327-4.688,9.536-6.97
			c0.33-0.234,0.97-0.031,1.467-0.031C179.387,510.461,177.295,514.315,177.649,518.374z"/>
		<path fill-rule="evenodd" clip-rule="evenodd" fill="none" d="M177.649,518.374c-0.354-4.059,1.738-7.913,1-12.002
			c0.799-8.731,3.212-16.991,7.272-24.763c0.713-1.365,1.842-2.547,1.73-4.244c4.86-6.123,9.238-12.652,15.267-17.779
			c6.587-5.601,13.762-10.052,21.825-13.413c4.904-2.044,10.098-2.789,14.943-4.784c0.567-0.233,1.314-0.031,1.978-0.031
			c3.33-0.372,6.763,0.771,10.052-0.903c0.675-0.343,1.975,0.792,3.011,0.858c2.306,0.145,4.626,0.045,6.941,0.045
			c7.163,1.437,14.239,3.172,21.019,5.97c0.569,0.235,1.319,0.031,1.986,0.031c0.229,0.396,0.362,0.947,0.705,1.166
			c2.584,1.649,5.195,3.257,7.84,4.807c0.366,0.214,0.965,0.029,1.457,0.029c1.146,1.744,2.546,3.026,4.44,4.147
			c2.476,1.464,4.4,3.86,6.562,5.855c4.001,5.334,8.002,10.669,12.003,16.003c-0.366,1.6,0.856,2.662,1.447,3.88
			c2.505,5.168,5.258,13.357,5.555,17.125c0.527,1.125,1.026,2.16,1.081,3.538c0.139,3.492-0.994,7.12,0.892,10.481
			c0.211,0.376,0.239,1.217-0.005,1.429c-1.872,1.62-0.565,3.729-0.966,5.557c0.419,4.658-1.948,8.904-2,13.492
			c-1.933,1.547-0.6,3.688-1,5.512c-0.333,0.333-0.667,0.667-1,1c-1.899,0.65-0.65,2.785-1.921,3.95
			c-1.053,0.965-1.308,2.749-2.101,4.059c-1.936,3.199-3.947,6.353-5.986,9.488c-2.607,4.009-6.107,7.235-9.527,10.501
			c-6.079,5.805-13.052,10.535-20.793,13.559c-4.963,1.939-9.962,4.525-15.61,4.501c-1.024-0.004-2.05,0.62-3.076,0.953
			c-4.697-0.074-9.263,1.684-14.003,1c-0.004-1.321-1.035-1.079-1.725-0.973c-3.856,0.594-7.488-1.034-11.282-1.077
			c-1.003-0.011-1.998-0.618-2.997-0.951c-6.609-1.971-12.989-4.451-18.792-8.266c-1.275-0.837-2.515-1.875-4.213-1.737
			c-1.138-1.739-2.226-3.531-4.493-4.001c-3.381-3.946-7.861-6.847-10.585-11.458c-0.857-1.45-2.593-2.378-3.927-3.546
			c-0.23-0.73-0.333-1.536-0.711-2.179c-2.805-4.76-5.465-9.585-7.291-14.824c-0.333-1.354-0.496-2.78-1.03-4.049
			c-2.182-5.186-3.165-10.564-2.989-16.178C178.654,519.437,179.017,518.386,177.649,518.374z M255.667,516.626
			c0-13.335,0-26.67,0-40.005c0-1.167,0.24-2.403-0.068-3.481c-0.303-1.06-1.138-1.901-2.556-1.802
			c-1.366,0.095-2.102,0.83-2.346,2.031c-0.163,0.801-0.031,1.662-0.031,2.495c0,27.004,0,54.007,0,81.011
			c0,0.834-0.128,1.693,0.03,2.495c0.238,1.208,0.979,1.934,2.34,2.04c1.424,0.109,2.255-0.742,2.562-1.797
			c0.313-1.075,0.069-2.313,0.069-3.48C255.667,542.965,255.667,529.796,255.667,516.626z M232.662,514.871
			c0-9.501,0-19.002,0-28.504c0-1,0.139-2.024-0.035-2.994c-0.216-1.206-0.976-1.937-2.341-2.033
			c-1.418-0.1-2.164,0.752-2.571,1.803c-0.28,0.725-0.054,1.646-0.054,2.479c0,19.502,0,39.005,0,58.507
			c0,0.833-0.229,1.756,0.055,2.479c0.411,1.046,1.152,1.907,2.576,1.797c1.361-0.104,2.125-0.828,2.336-2.039
			c0.169-0.97,0.034-1.994,0.034-2.994C232.662,533.873,232.662,524.372,232.662,514.871z M273.671,514.373
			c0,9.668,0,19.335,0,29.003c0,1-0.136,2.024,0.035,2.994c0.213,1.208,0.976,1.936,2.338,2.037
			c1.421,0.106,2.164-0.751,2.574-1.799c0.283-0.723,0.054-1.646,0.054-2.479c0-19.502,0-39.005,0-58.507
			c0-0.833,0.228-1.755-0.054-2.479c-0.408-1.049-1.152-1.904-2.572-1.801c-1.364,0.098-2.125,0.828-2.34,2.035
			c-0.173,0.969-0.035,1.994-0.035,2.994C273.671,495.703,273.671,505.038,273.671,514.373z M214.658,515.621c0-4.333,0-8.667,0-13
			c0-0.833,0.229-1.757-0.055-2.479c-0.411-1.046-1.152-1.907-2.575-1.798c-1.361,0.104-2.054,0.839-2.352,2.038
			c-0.117,0.471-0.019,0.995-0.019,1.495c0,9.001,0,18.001,0,27.001c0,0.5-0.1,1.026,0.02,1.496
			c0.304,1.192,0.992,1.935,2.357,2.031c1.418,0.101,2.164-0.752,2.571-1.802c0.281-0.725,0.054-1.646,0.054-2.479
			C214.658,523.955,214.658,519.788,214.658,515.621z M291.675,515.375c0,4.666-0.023,9.333,0.011,14
			c0.014,1.875,0.914,2.938,2.366,3.002c1.582,0.068,2.597-0.878,2.605-2.756c0.042-9.5,0.042-19,0-28.5
			c-0.008-1.875-1.027-2.823-2.608-2.751c-1.451,0.065-2.349,1.128-2.363,3.005C291.652,506.042,291.675,510.708,291.675,515.375z"
			/>
		<path fill-rule="evenodd" clip-rule="evenodd" fill="none" d="M125.985,652.387c-8.719,0.599-15.646-7.604-15.419-15.858
			c0.25-9.103,6.607-15.744,15.489-15.988c3.651-0.1,7.334,1.001,10.333,3.957c3.698,3.645,5.293,7.757,5.316,12.858
			c0.02,4.261-1.827,7.774-4.375,10.656C134.42,651.302,130.332,652.887,125.985,652.387z"/>
		<path fill-rule="evenodd" clip-rule="evenodd" fill="#4A4A59" d="M321.682,541.379c0.333-0.333,0.667-0.667,1-1
			C322.349,540.712,322.016,541.046,321.682,541.379z"/>
		<path fill-rule="evenodd" clip-rule="evenodd" fill="none" d="M295.059,640.402c-2.153,0-4.307,0.031-6.459-0.014
			c-1.03-0.021-0.651-0.376-0.373-1.111c2.062-5.439,4.826-10.599,6.465-16.206c0.068-0.232,0.373-0.396,0.567-0.591
			c0.234,0.234,0.517,0.437,0.694,0.708c0.594,0.907,1.513,1.786,1.66,2.771c0.607,4.06,3.467,7.212,4.303,11.157
			c0.124,0.583,0.625,1.09,0.732,1.673c0.15,0.819,0.124,1.646-1.131,1.623C299.365,640.374,297.211,640.402,295.059,640.402z"/>
		<path fill-rule="evenodd" clip-rule="evenodd" fill="#686874" d="M255.667,516.626c0,13.169,0,26.338,0,39.506
			c0,1.167,0.244,2.405-0.069,3.48c-0.306,1.055-1.138,1.907-2.562,1.797c-1.361-0.105-2.102-0.831-2.34-2.04
			c-0.159-0.802-0.03-1.66-0.03-2.495c0-27.004,0-54.007,0-81.011c0-0.833-0.132-1.694,0.031-2.495
			c0.245-1.201,0.98-1.937,2.346-2.031c1.418-0.099,2.252,0.742,2.556,1.802c0.309,1.079,0.068,2.314,0.068,3.481
			C255.667,489.957,255.667,503.292,255.667,516.626z"/>
		<path fill-rule="evenodd" clip-rule="evenodd" fill="#686874" d="M232.662,514.871c0,9.501,0,19.002,0,28.503
			c0,1,0.135,2.024-0.034,2.994c-0.212,1.21-0.976,1.935-2.336,2.039c-1.423,0.109-2.165-0.751-2.576-1.797
			c-0.284-0.723-0.055-1.646-0.055-2.479c0-19.502,0-39.005,0-58.507c0-0.833-0.227-1.754,0.054-2.479
			c0.407-1.051,1.153-1.903,2.571-1.803c1.365,0.096,2.125,0.827,2.341,2.033c0.174,0.969,0.035,1.994,0.035,2.994
			C232.662,495.868,232.662,505.369,232.662,514.871z"/>
		<path fill-rule="evenodd" clip-rule="evenodd" fill="#686874" d="M273.671,514.373c0-9.334,0-18.669,0-28.004
			c0-1-0.138-2.024,0.035-2.994c0.215-1.207,0.976-1.937,2.34-2.035c1.42-0.103,2.164,0.752,2.572,1.801
			c0.282,0.724,0.054,1.646,0.054,2.479c0,19.502,0,39.005,0,58.507c0,0.833,0.229,1.756-0.054,2.479
			c-0.41,1.048-1.153,1.906-2.574,1.799c-1.362-0.101-2.125-0.828-2.338-2.037c-0.171-0.97-0.035-1.994-0.035-2.994
			C273.671,533.708,273.671,524.041,273.671,514.373z"/>
		<path fill-rule="evenodd" clip-rule="evenodd" fill="#686874" d="M214.658,515.621c0,4.167,0,8.334,0,12.501
			c0,0.833,0.227,1.754-0.054,2.479c-0.407,1.05-1.153,1.903-2.571,1.802c-1.365-0.096-2.053-0.838-2.357-2.031
			c-0.12-0.47-0.02-0.996-0.02-1.496c0-9,0-18,0-27.001c0-0.5-0.098-1.024,0.019-1.495c0.298-1.199,0.991-1.933,2.352-2.038
			c1.423-0.108,2.165,0.752,2.575,1.798c0.284,0.722,0.055,1.646,0.055,2.479C214.658,506.954,214.658,511.288,214.658,515.621z"/>
		<path fill-rule="evenodd" clip-rule="evenodd" fill="#686874" d="M291.675,515.375c0-4.667-0.023-9.334,0.011-14
			c0.014-1.877,0.912-2.94,2.363-3.005c1.581-0.071,2.6,0.877,2.608,2.751c0.042,9.5,0.042,19,0,28.5
			c-0.008,1.877-1.023,2.824-2.605,2.756c-1.452-0.063-2.352-1.126-2.366-3.002C291.652,524.708,291.675,520.042,291.675,515.375z"
			/>
	</g>
</g>
<g id="Capa_3" display="none">
	<g display="inline">
		<path fill="none" d="M589.729,455.176c-17.914,4.139-33.353,14.789-43.689,29.323"/>
	</g>
	<g display="inline">
		<path fill="#4A4A59" d="M675.175,554.658l14.83-11.878c0.924-5.022,1.432-10.19,1.432-15.48c0-0.696-0.036-1.384-0.053-2.076
			l-11.285,9.039C679.43,541.403,677.735,548.247,675.175,554.658z"/>
	</g>
	<g display="inline">
		<path fill="#4A4A59" d="M606.397,601.339c-1.027,0-2.046-0.036-3.063-0.078l-10.024,10.073c3.951,0.61,7.995,0.933,12.105,0.979
			l11.704-11.761C613.616,601.064,610.039,601.339,606.397,601.339z"/>
	</g>
	<g display="inline">
		<path fill="#4A4A59" d="M637.421,460.099l7.73-8.487c-5.778-2.965-11.934-5.292-18.386-6.878l-11.754,9.044
			C622.928,454.7,630.463,456.874,637.421,460.099z"/>
	</g>
	<g display="inline">
		<path fill="#9066E6" d="M589.729,455.176l19.149-12.853c-0.827-0.024-1.649-0.063-2.481-0.063
			c-36.455,0-67.54,22.945-79.633,55.176l19.276-12.938C556.377,469.965,571.815,459.315,589.729,455.176z"/>
	</g>
	<g display="inline">
		<path fill="#4A4A59" d="M532.358,527.3c0-3.567,0.269-7.072,0.759-10.507l-11.721,9.019c-0.009,0.497-0.038,0.989-0.038,1.488
			c0,3.492,0.235,6.927,0.644,10.309l10.431-7.339C532.394,529.283,532.358,528.296,532.358,527.3z"/>
	</g>
	<g display="inline">
		<path fill="#7251B4" d="M659.417,475.695l8.123-7.466c-3.119-3.229-6.479-6.222-10.074-8.925l-8.79,7.269
			C652.542,469.271,656.137,472.326,659.417,475.695z"/>
	</g>
	<g display="inline">
		<path fill="#C0ABE9" d="M606.397,453.261c2.915,0,5.786,0.188,8.614,0.518l11.754-9.044c-5.754-1.415-11.739-2.234-17.887-2.41
			l-19.149,12.853C595.091,453.937,600.665,453.261,606.397,453.261z"/>
	</g>
	<g display="inline">
		<path fill="#4A4A59" d="M671.493,492.048l8.707-6.975c-3.519-6.137-7.777-11.792-12.66-16.845l-8.123,7.466
			C664.147,480.553,668.229,486.045,671.493,492.048z"/>
	</g>
	<g display="inline">
		<path fill="#C0ABE9" d="M588.161,599.061l-8.815,8.858c4.502,1.51,9.162,2.674,13.964,3.416l10.024-10.073
			C598.122,601.048,593.044,600.303,588.161,599.061z"/>
	</g>
	<path display="inline" fill="#C0ABE9" d="M526.764,497.437c-2.082,5.548-3.594,11.372-4.477,17.401l-8.807,6.081
		c-0.682,0.471-0.853,1.405-0.382,2.087c0.291,0.421,0.759,0.647,1.236,0.647c0.294,0,0.591-0.086,0.851-0.266l6.621-4.572
		c-0.228,2.307-0.371,4.639-0.412,6.996l11.721-9.019c1.7-11.909,6.247-22.906,12.923-32.294L526.764,497.437z"/>
	<path display="inline" fill="#9066E6" d="M536.731,552.358c-2.505-6.943-3.992-14.366-4.298-22.089l-10.431,7.339
		c0.535,4.424,1.414,8.74,2.601,12.926l-5.219,3.743c-0.897,0.644-1.104,1.893-0.46,2.791c0.391,0.545,1.004,0.834,1.627,0.834
		c0.404,0,0.811-0.122,1.164-0.375l4.144-2.971c0.445,1.314,0.911,2.62,1.418,3.905L536.731,552.358z"/>
	<path display="inline" fill="#7251B4" d="M545.235,568.97c-3.496-5.116-6.367-10.689-8.504-16.612l-9.455,6.104
		c1.019,2.585,2.165,5.105,3.422,7.558l-6.888,5.366c-0.653,0.509-0.771,1.452-0.261,2.105c0.295,0.379,0.737,0.578,1.184,0.578
		c0.322,0,0.647-0.104,0.921-0.317l6.483-5.051c1.559,2.792,3.264,5.491,5.119,8.078L545.235,568.97z"/>
	<path display="inline" fill="#4A4A59" d="M564.721,588.458c-7.644-5.226-14.261-11.843-19.485-19.487l-7.979,7.81
		c3.442,4.801,7.374,9.224,11.717,13.205l-11.165,10.434c-0.605,0.565-0.637,1.515-0.071,2.12c0.295,0.316,0.695,0.476,1.096,0.476
		c0.367,0,0.734-0.134,1.024-0.404l11.371-10.627c1.805,1.541,3.674,3.011,5.605,4.399L564.721,588.458z"/>
	<path display="inline" fill="#9066E6" d="M588.161,599.061c-8.492-2.159-16.399-5.791-23.44-10.604l-7.886,7.924
		c5.104,3.669,10.63,6.783,16.493,9.26l-4.561,3.963c-0.625,0.543-0.692,1.491-0.148,2.116c0.297,0.341,0.714,0.516,1.133,0.516
		c0.349,0,0.699-0.121,0.983-0.368l5.729-4.978c0.953,0.359,1.914,0.703,2.883,1.028L588.161,599.061z"/>
	<path display="inline" fill="#7251B4" d="M695.54,544.242c-0.549-0.62-1.497-0.677-2.118-0.128l-4.622,4.094
		c0.453-1.79,0.868-3.594,1.205-5.427l-14.83,11.878c-9.631,24.126-31.587,42.039-58.057,45.896l-11.704,11.761
		c0.329,0.004,0.653,0.025,0.982,0.025c37.796,0,69.812-24.666,80.877-58.773l8.137-7.207
		C696.031,545.81,696.089,544.862,695.54,544.242z"/>
	<path display="inline" fill="#C0ABE9" d="M696.252,518.023c-0.439-0.702-1.365-0.915-2.067-0.475l-3.131,1.961
		c-0.416-4.659-1.196-9.212-2.339-13.622l-9.577,7.671c0.84,4.456,1.299,9.044,1.299,13.741c0,2.349-0.123,4.669-0.337,6.962
		l11.285-9.039c-0.019-0.778-0.05-1.552-0.088-2.325l4.482-2.808C696.479,519.651,696.692,518.726,696.252,518.023z"/>
	<path display="inline" fill="#9066E6" d="M691.771,492.282c-0.561-0.608-1.51-0.65-2.12-0.088l-4.172,3.838
		c-1.507-3.792-3.269-7.454-5.279-10.958l-8.707,6.975c3.602,6.625,6.203,13.866,7.645,21.511l9.577-7.671
		c-0.601-2.317-1.31-4.59-2.1-6.824l5.067-4.662C692.292,493.841,692.331,492.892,691.771,492.282z"/>
	<path display="inline" fill="#9066E6" d="M665.821,444.23c-0.786-0.776-2.052-0.768-2.828,0.019l-11.085,11.23
		c-2.189-1.384-4.441-2.678-6.757-3.866l-7.73,8.487c3.953,1.832,7.716,4,11.256,6.473l8.79-7.269
		c-0.712-0.536-1.443-1.048-2.173-1.561l10.546-10.684C666.616,446.272,666.607,445.006,665.821,444.23z"/>
</g>
<g id="Capa_4" display="none">
	<g display="inline">
		<g>
			<path fill="#FFFFFF" d="M720.114,782.261c-6.079,0-11.004-4.926-11.004-11.002V391.082c0-6.077,4.925-11.003,11.004-11.003
				c6.077,0,11.003,4.926,11.003,11.003v380.177C731.117,777.335,726.191,782.261,720.114,782.261z"/>
		</g>
		<g>
			<path fill="#FFFFFF" d="M821.36,725.043c-6.077,0-11.004-4.927-11.004-11.005V439.498c0-6.077,4.927-11.004,11.004-11.004
				c6.078,0,11.003,4.927,11.003,11.004v274.541C832.363,720.117,827.438,725.043,821.36,725.043z"/>
		</g>
		<g>
			<path fill="#FFFFFF" d="M900.534,652.97c-6.077,0-11.003-4.926-11.003-11.004V513.335c0-6.078,4.926-11.004,11.003-11.004
				c6.079,0,11.005,4.926,11.005,11.004v128.631C911.539,648.044,906.613,652.97,900.534,652.97z"/>
		</g>
		<g>
			<path fill="#FFFFFF" d="M618.692,727.605c-6.078,0-11.004-4.926-11.004-11.004V442.061c0-6.078,4.926-11.004,11.004-11.004
				c6.077,0,11.003,4.926,11.003,11.004v274.541C629.695,722.679,624.769,727.605,618.692,727.605z"/>
		</g>
		<g>
			<path fill="#FFFFFF" d="M539.628,656.489c-6.077,0-11.004-4.925-11.004-11.003V516.854c0-6.077,4.927-11.003,11.004-11.003
				c6.078,0,11.004,4.926,11.004,11.003v128.632C550.632,651.564,545.707,656.489,539.628,656.489z"/>
		</g>
	</g>
	<g>
		<path display="inline" fill="#4A4A59" d="M169.643,1019.464c27.788,0,50.608,9.295,68.451,27.887
			c17.468,18.027,26.198,40.563,26.198,67.607c0,27.041-8.73,49.578-26.198,67.605c-17.843,18.594-40.663,27.887-68.451,27.887
			c-27.797,0-50.612-9.293-68.45-27.887c-17.469-18.027-26.198-40.564-26.198-67.605c0-27.045,8.729-49.58,26.198-67.607
			C119.031,1028.759,141.846,1019.464,169.643,1019.464z M169.643,1189.888c22.158,0,40.091-7.227,53.802-21.689
			c13.145-13.896,19.721-31.645,19.721-53.24c0-21.594-6.576-39.342-19.721-53.242c-13.711-14.457-31.644-21.689-53.802-21.689
			c-22.162,0-40.099,7.232-53.802,21.689c-13.149,13.9-19.72,31.648-19.72,53.242c0,21.596,6.57,39.344,19.72,53.24
			C129.544,1182.662,147.481,1189.888,169.643,1189.888z"/>
		<path display="inline" fill="#4A4A59" d="M458.941,1021.714v186.484h-24.505l-115.217-157.467v157.467h-21.121v-186.484h24.505
			l115.216,156.908v-156.908H458.941z"/>
		<path display="inline" fill="#4A4A59" d="M525.981,1050.308c-3.571,3.1-5.961,6.527-7.182,10.281
			c-1.221,3.762-1.831,7.746-1.831,11.973c0,4.225,1.831,8.127,5.493,11.689c3.662,3.572,8.493,6.578,14.506,9.014
			c6.01,2.447,12.861,4.604,20.564,6.482c7.697,1.879,15.538,3.801,23.523,5.773c7.979,1.971,15.818,4.225,23.52,6.76
			c7.694,2.537,14.551,5.773,20.564,9.721c13.333,8.449,20,19.998,20,34.646c0,17.465-6.529,30.803-19.579,40
			c-13.054,9.203-31.128,13.803-54.228,13.803c-26.103,0-46.009-5.441-59.717-16.338c-12.211-9.762-19.157-23.662-20.847-41.689
			h21.974c0.747,12.775,6.946,22.535,18.59,29.297c10.144,5.82,23.567,8.73,40.283,8.73c34.929,0,52.396-10.986,52.396-32.955
			c0-7.51-3.146-13.428-9.438-17.748c-6.292-4.318-14.181-7.887-23.662-10.707c-9.487-2.816-19.716-5.441-30.703-7.887
			c-10.986-2.438-21.225-5.584-30.707-9.436c-9.481-3.846-17.374-8.918-23.658-15.213c-6.296-6.287-9.438-14.789-9.438-25.492
			c0-15.211,5.819-27.605,17.464-37.186c11.645-9.576,29.199-14.363,52.676-14.363c23.666,0,41.974,5.447,54.932,16.338
			c11.83,9.576,18.123,21.879,18.875,36.9h-21.693c-1.874-15.396-11.829-25.633-29.856-30.703
			c-6.388-1.875-14.322-2.816-23.804-2.816c-9.487,0-17.469,1.082-23.942,3.238C534.575,1044.583,529.544,1047.21,525.981,1050.308z
			"/>
		<path display="inline" fill="#4A4A59" d="M808.521,1042h-65.077v166.199h-21.121V1042h-65.076v-20.285h151.274V1042z"/>
		<path display="inline" fill="#4A4A59" d="M981.477,1208.199h-23.383l-22.814-54.086h-92.396l-22.817,54.086h-23.381
			l79.156-186.484h26.478L981.477,1208.199z M927.111,1134.675l-38.03-90.986l-38.027,90.986H927.111z"/>
		<path display="inline" fill="#4A4A59" d="M1043.449,1026.927c11.271-4.973,22.911-7.463,34.928-7.463
			c12.02,0,22.438,1.314,31.267,3.943c8.827,2.631,16.806,6.195,23.949,10.705c14.829,9.576,25.731,22.35,32.677,38.311h-23.1
			c-5.63-10.143-13.479-18.074-23.52-23.805c-10.049-5.727-21.458-8.592-34.232-8.592c-12.766,0-23.657,1.928-32.676,5.775
			c-9.009,3.852-16.617,9.154-22.815,15.914c-12.773,13.9-19.154,31.648-19.154,53.242c0,21.785,6.295,39.533,18.87,53.24
			c13.334,14.463,30.992,21.689,52.965,21.689c17.648,0,32.857-5.445,45.63-16.338c13.523-11.451,20.288-26.574,20.288-45.352
			h-68.17v-19.158h87.608v99.158h-19.438v-32.961c-10.711,16.154-25.548,26.951-44.513,32.396
			c-6.945,1.875-16.102,2.816-27.468,2.816c-11.363,0-22.677-2.484-33.938-7.461c-11.271-4.979-20.848-11.787-28.738-20.426
			c-16.154-17.65-24.226-40.186-24.226-67.605c0-27.045,8.356-49.58,25.076-67.607
			C1022.603,1038.716,1032.18,1031.904,1043.449,1026.927z"/>
		<path display="inline" fill="#4A4A59" d="M1226.275,1042v62.537h103.657v20.563h-103.657v62.816h116.053v20.283h-137.186v-186.484
			h137.186V1042H1226.275z"/>
	</g>
	<g display="inline">
		<path fill="none" d="M639.152,263.719c-78.849,18.216-146.805,65.092-192.298,129.063"/>
	</g>
	<g display="inline">
		<path fill="#4A4A59" d="M1015.235,701.584l65.274-52.281c4.066-22.106,6.301-44.853,6.301-68.134c0-3.065-0.164-6.092-0.231-9.138
			l-49.672,39.782C1033.96,643.245,1026.496,673.365,1015.235,701.584z"/>
	</g>
	<g display="inline">
		<path fill="#4A4A59" d="M712.516,907.05c-4.523,0-9.01-0.158-13.484-0.342l-44.123,44.338c17.392,2.686,35.187,4.104,53.283,4.311
			l51.509-51.766C744.288,905.839,728.538,907.05,712.516,907.05z"/>
	</g>
	<g display="inline">
		<path fill="#4A4A59" d="M849.063,285.388l34.024-37.354c-25.438-13.051-52.529-23.293-80.929-30.276l-51.734,39.81
			C785.268,261.624,818.438,271.191,849.063,285.388z"/>
	</g>
	<g display="inline">
		<path fill="#9066E6" d="M639.152,263.719l84.279-56.57c-3.634-0.104-7.254-0.276-10.915-0.276
			c-160.458,0-297.28,100.99-350.505,242.854l84.844-56.943C492.347,328.811,560.303,281.935,639.152,263.719z"/>
	</g>
	<g display="inline">
		<path fill="#4A4A59" d="M386.63,581.169c0-15.702,1.183-31.129,3.34-46.246l-51.589,39.697c-0.043,2.188-0.167,4.353-0.167,6.549
			c0,15.37,1.035,30.489,2.832,45.375l45.915-32.305C386.79,589.898,386.63,585.553,386.63,581.169z"/>
	</g>
	<g display="inline">
		<path fill="#7251B4" d="M945.878,354.031l35.755-32.863c-13.73-14.21-28.525-27.385-44.342-39.284l-38.686,31.992
			C915.618,325.757,931.436,339.203,945.878,354.031z"/>
	</g>
	<g display="inline">
		<path fill="#C0ABE9" d="M712.516,255.288c12.825,0,25.461,0.827,37.909,2.278l51.734-39.81
			c-25.325-6.228-51.665-9.832-78.729-10.608l-84.279,56.57C662.75,258.265,687.283,255.288,712.516,255.288z"/>
	</g>
	<g display="inline">
		<path fill="#4A4A59" d="M999.03,426.011l38.324-30.699c-15.49-27.013-34.232-51.901-55.722-74.144l-35.755,32.863
			C966.69,375.415,984.656,399.589,999.03,426.011z"/>
	</g>
	<g display="inline">
		<path fill="#C0ABE9" d="M632.249,897.023l-38.805,38.988c19.814,6.648,40.327,11.771,61.465,15.035l44.123-44.338
			C676.086,905.771,653.74,902.488,632.249,897.023z"/>
	</g>
	<path display="inline" fill="#C0ABE9" d="M362.01,449.726c-9.16,24.421-15.823,50.055-19.704,76.592l-38.762,26.766
		c-3.001,2.072-3.754,6.184-1.682,9.186c1.281,1.854,3.345,2.851,5.442,2.851c1.289,0,2.596-0.38,3.744-1.17l29.142-20.122
		c-1.001,10.152-1.633,20.416-1.81,30.793l51.589-39.697c7.479-52.418,27.492-100.819,56.884-142.141L362.01,449.726z"/>
	<path display="inline" fill="#9066E6" d="M405.882,691.463c-11.029-30.561-17.571-63.232-18.921-97.224l-45.915,32.305
		c2.356,19.471,6.225,38.467,11.45,56.894l-22.974,16.474c-3.95,2.833-4.857,8.333-2.024,12.284
		c1.719,2.399,4.419,3.673,7.161,3.673c1.779,0,3.567-0.534,5.123-1.647l18.243-13.078c1.955,5.786,4.005,11.53,6.24,17.187
		L405.882,691.463z"/>
	<path display="inline" fill="#7251B4" d="M443.312,764.58c-15.389-22.518-28.024-47.047-37.43-73.117l-41.616,26.867
		c4.483,11.377,9.525,22.469,15.062,33.266l-30.32,23.619c-2.871,2.24-3.388,6.391-1.148,9.266c1.303,1.67,3.246,2.545,5.214,2.545
		c1.419,0,2.847-0.457,4.05-1.395l28.54-22.23c6.86,12.285,14.365,24.166,22.527,35.553L443.312,764.58z"/>
	<path display="inline" fill="#4A4A59" d="M529.071,850.351c-33.638-23-62.764-52.127-85.759-85.771l-35.122,34.373
		c15.152,21.133,32.457,40.598,51.576,58.119l-49.143,45.926c-2.66,2.488-2.808,6.666-0.314,9.33
		c1.299,1.391,3.061,2.094,4.823,2.094c1.615,0,3.232-0.588,4.509-1.779l50.049-46.773c7.948,6.781,16.17,13.252,24.674,19.361
		L529.071,850.351z"/>
	<path display="inline" fill="#9066E6" d="M632.249,897.023c-37.378-9.504-72.187-25.488-103.178-46.672l-34.707,34.879
		c22.468,16.148,46.786,29.854,72.594,40.756l-20.078,17.443c-2.755,2.393-3.047,6.561-0.653,9.314
		c1.307,1.502,3.143,2.271,4.986,2.271c1.534,0,3.077-0.533,4.328-1.617l25.214-21.912c4.195,1.58,8.425,3.096,12.689,4.525
		L632.249,897.023z"/>
	<path display="inline" fill="#7251B4" d="M1104.863,655.737c-2.415-2.728-6.585-2.979-9.317-0.564l-20.341,18.019
		c1.986-7.878,3.816-15.82,5.305-23.889l-65.274,52.281c-42.39,106.191-139.032,185.031-255.534,202.007l-51.509,51.766
		c1.443,0.018,2.87,0.109,4.324,0.109c166.355,0,307.268-108.566,355.975-258.688l35.814-31.72
		C1107.029,662.641,1107.288,658.467,1104.863,655.737z"/>
	<path display="inline" fill="#C0ABE9" d="M1108.001,540.339c-1.934-3.089-6.009-4.025-9.095-2.089l-13.779,8.633
		c-1.832-20.505-5.271-40.548-10.3-59.956l-42.15,33.762c3.698,19.611,5.718,39.81,5.718,60.48c0,10.339-0.542,20.55-1.487,30.645
		l49.672-39.782c-0.086-3.425-0.224-6.834-0.396-10.233l19.73-12.359C1109.008,547.504,1109.936,543.43,1108.001,540.339z"/>
	<path display="inline" fill="#9066E6" d="M1088.281,427.039c-2.477-2.677-6.653-2.86-9.337-0.389l-18.361,16.895
		c-6.629-16.688-14.382-32.809-23.229-48.233l-38.324,30.699c15.853,29.162,27.303,61.028,33.646,94.678l42.15-33.762
		c-2.648-10.201-5.769-20.203-9.241-30.038l22.299-20.52C1090.577,433.899,1090.749,429.725,1088.281,427.039z"/>
	<path display="inline" fill="#9066E6" d="M974.065,215.54c-3.464-3.416-9.035-3.382-12.447,0.081l-48.794,49.428
		c-9.638-6.09-19.545-11.788-29.736-17.016l-34.024,37.354c17.4,8.063,33.956,17.607,49.542,28.488l38.686-31.992
		c-3.139-2.359-6.354-4.612-9.569-6.871l46.422-47.025C977.557,224.529,977.522,218.954,974.065,215.54z"/>
</g>
<g id="Capa_5" display="none">
	<path display="inline" fill="#04D8D8" d="M1044.433,472.315c-13.533-142.859-101.184-258.451-316.563-259.831
		c-1.275-0.006-2.521-0.01-3.787-0.01c-214.904,0.009-296.127,118.159-312.774,259.841
		C387.599,674.096,556.678,981.241,731.51,981.241C906.343,981.241,1061.451,651.982,1044.433,472.315z M836.7,849.806
		c-19.311,21.226-38.693,37.396-57.615,48.062c-16.794,9.47-32.801,14.27-47.577,14.27c-37.252,0-81.098-26.234-123.463-73.868
		c-33.811-38.016-64.01-86.808-86.931-139.978c8.435,6.396,17.496,12.564,27.116,18.381c40.871,24.712,82.708,37.646,114.485,37.646
		c22.836,0,40.478-6.683,48.818-20.477c19.946-32.99-20.829-94.165-91.068-136.635c-40.873-24.713-82.713-37.648-114.488-37.646
		c-8.891,0-16.981,1.026-24.055,3.078c-4.163-29.593-4.896-57.454-1.981-82.256c7.248-61.687,27.855-109.208,61.249-141.245
		c18.311-17.565,41.345-31.27,68.465-40.731c31.989-11.163,70.49-16.823,114.429-16.826c1.116,0,2.213,0.003,3.343,0.012
		c83.197,0.532,146.245,20.177,187.389,58.391c34.68,32.21,55.141,78.925,60.818,138.851c2.284,24.108,0.566,52.79-4.771,83.963
		c-6.533-1.65-13.859-2.485-21.839-2.485c-31.774,0-73.614,12.935-114.484,37.647c-70.242,42.472-111.017,103.646-91.071,136.635
		c8.34,13.792,25.983,20.477,48.818,20.477c31.775,0,73.615-12.934,114.484-37.646c7.313-4.422,14.301-9.047,20.938-13.821
		c-9.504,21.807-20.058,42.867-31.564,62.929C877.662,798.748,857.662,826.764,836.7,849.806z"/>
	<g display="inline" enable-background="new    ">
		<path d="M193.677,1157.636h-38.698l-7.629,17.911h-14.815l34.828-77.396h14.152l34.938,77.396h-15.037L193.677,1157.636z
			 M188.922,1146.358l-14.595-33.833l-14.484,33.833H188.922z"/>
		<path d="M226.296,1098.152h14.374v65.233h40.467v12.162h-54.84V1098.152z"/>
		<path d="M292.527,1098.152h14.374v77.396h-14.374V1098.152z"/>
		<path d="M385.844,1163.496v12.052h-58.047v-77.396h56.499v12.052h-42.125v20.123h37.371v11.83h-37.371v21.339H385.844z"/>
		<path d="M470.651,1098.152v77.396H458.82l-42.678-52.408v52.408h-14.263v-77.396h11.831l42.678,52.408v-52.408H470.651z"/>
		<path d="M521.957,1098.152h14.374v77.396h-14.374V1098.152z"/>
		<path d="M625.998,1098.152v77.396h-11.831l-42.678-52.408v52.408h-14.263v-77.396h11.831l42.678,52.408v-52.408H625.998z"/>
		<path d="M715.56,1098.152v77.396h-11.83l-42.678-52.408v52.408h-14.263v-77.396h11.831l42.678,52.408v-52.408H715.56z"/>
		<path d="M730.821,1136.849c0-22.887,17.69-39.803,41.683-39.803c23.993,0,41.684,16.806,41.684,39.803
			c0,22.998-17.69,39.804-41.684,39.804C748.512,1176.653,730.821,1159.737,730.821,1136.849z M799.703,1136.849
			c0-15.811-11.609-27.198-27.199-27.198s-27.199,11.388-27.199,27.198c0,15.812,11.609,27.199,27.199,27.199
			S799.703,1152.661,799.703,1136.849z"/>
		<path d="M897.779,1098.152l-33.723,77.396h-14.152l-33.833-77.396h15.59l25.762,59.705l25.982-59.705H897.779z"/>
		<path d="M953.729,1157.636H915.03l-7.629,17.911h-14.815l34.828-77.396h14.152l34.938,77.396h-15.037L953.729,1157.636z
			 M948.974,1146.358l-14.594-33.833l-14.484,33.833H948.974z"/>
		<path d="M998.18,1110.314h-25.651v-12.162h65.676v12.162h-25.651v65.233H998.18V1110.314z"/>
		<path d="M1049.042,1098.152h14.373v77.396h-14.373V1098.152z"/>
		<path d="M1078.784,1136.849c0-22.887,17.69-39.803,41.683-39.803c23.993,0,41.684,16.806,41.684,39.803
			c0,22.998-17.69,39.804-41.684,39.804C1096.475,1176.653,1078.784,1159.737,1078.784,1136.849z M1147.666,1136.849
			c0-15.811-11.609-27.198-27.199-27.198s-27.199,11.388-27.199,27.198c0,15.812,11.609,27.199,27.199,27.199
			S1147.666,1152.661,1147.666,1136.849z"/>
		<path d="M1246.183,1098.152v77.396h-11.831l-42.678-52.408v52.408h-14.263v-77.396h11.83l42.678,52.408v-52.408H1246.183z"/>
		<path d="M1260.449,1167.366l4.975-11.167c6.192,4.976,16.032,8.514,25.541,8.514c12.052,0,17.138-4.313,17.138-10.062
			c0-16.695-45.995-5.75-45.995-34.497c0-12.493,9.951-23.107,31.18-23.107c9.287,0,19.017,2.432,25.762,6.854l-4.533,11.167
			c-6.966-4.091-14.595-6.081-21.34-6.081c-11.94,0-16.806,4.644-16.806,10.504c0,16.475,45.885,5.749,45.885,34.165
			c0,12.383-10.062,22.997-31.29,22.997C1278.913,1176.653,1266.861,1172.894,1260.449,1167.366z"/>
	</g>
	<path display="inline" fill="#FFFFFF" d="M990.182,386.766c-123.99-165.782-395.477-174.292-525.574-14.391
		C560.398,179.552,912.603,180.033,990.182,386.766z"/>
</g>
<g id="Capa_6">
	<path fill-rule="evenodd" clip-rule="evenodd" fill="none" d="M1235.471,957.542c-0.171-3.296-0.458-6.588-0.458-9.884
		c0-1.229,0.539-3.459,1.054-3.527c2.582-0.334,2.071,2.002,2.199,3.454c0.293,3.292,0.34,6.604,0.486,9.912
		C1237.657,957.514,1236.564,957.53,1235.471,957.542z"/>
	<path fill="#D42028" d="M622.509,956.867C-56.349,789.833-126.845,630.841,1331.19,392.743
		C-371.477,569.537-41.477,857.25,622.509,956.867z"/>
	<path fill="#FCC53F" d="M188.998,840.509c400.635,280.808,986.093,283.808,897.598-397.158
		C1052.097,1100.318,657.617,1002.823,188.998,840.509z"/>
	<g>
		<path fill="#FFFFFF" d="M364.189,808.637V649.615h97.258v29.5h-61.189v36.299h57.156v29.27h-57.156v63.954H364.189z"/>
		<path fill="#FFFFFF" d="M583.134,712.072v29.27h-58.539v37.796h65.453v29.5H488.527V649.615h98.18v29.5h-62.111v32.957H583.134z"
			/>
		<path fill="#FFFFFF" d="M608.255,801.377l7.26-29.845c12.445,6.607,25.773,9.909,39.986,9.909
			c16.824,0,25.236-5.722,25.236-17.169c0-5.838-3.189-10.793-9.564-14.865c-3.457-2.228-9.181-4.763-17.17-7.605
			c-29.117-10.217-43.674-25.851-43.674-46.9c0-15.594,6.375-27.732,19.129-36.414c11.138-7.528,24.851-11.293,41.139-11.293
			c15.517,0,29.039,2.613,40.563,7.836l-8.067,29.039c-10.526-5.07-21.588-7.605-33.188-7.605c-5.917,0-10.987,1.077-15.211,3.227
			c-5.301,2.69-7.951,6.723-7.951,12.1c0,4.764,2.342,8.797,7.029,12.1c3.918,2.766,11.408,6.223,22.471,10.371
			c27.501,10.295,41.254,26.082,41.254,47.361c0,14.213-5.264,25.812-15.788,34.8c-11.601,9.91-27.734,14.865-48.398,14.865
			C635.105,811.288,620.085,807.986,608.255,801.377z"/>
		<path fill="#FFFFFF" d="M806.92,808.637h-39.41l-37.797-159.022h38.488l11.984,65.568c3.457,18.822,6.605,37.298,9.449,55.428
			h0.461c2.149-14.289,5.606-32.918,10.371-55.889l13.482-65.107h38.258l12.791,66.951c2.918,15.058,5.721,32.842,8.412,53.354
			h0.461c2.766-19.974,5.836-38.373,9.219-55.197l13.021-65.107h36.529l-41.023,159.022h-38.949l-13.482-68.448
			c-3.227-16.363-5.725-32.727-7.49-49.09h-0.461c-2.613,16.824-5.687,33.188-9.219,49.09L806.92,808.637z"/>
	</g>
	<g>
		<path fill="#FFFFFF" d="M1011.818,911.545h25.217v63.969c0,19.283,6.714,28.924,20.143,28.924
			c13.642,0,20.463-9.641,20.463-28.924v-63.969h25.057v62.357c0,16.92-4.057,29.677-12.166,38.27
			c-7.842,8.271-19.229,12.407-34.16,12.407c-29.702,0-44.553-16.999-44.553-50.999V911.545z"/>
		<path fill="#FFFFFF" d="M1120.1,1017.651l5.076-20.867c8.701,4.621,18.019,6.93,27.956,6.93c11.763,0,17.644-4.001,17.644-12.005
			c0-4.081-2.229-7.546-6.687-10.394c-2.417-1.557-6.419-3.329-12.005-5.316c-20.356-7.143-30.534-18.074-30.534-32.791
			c0-10.902,4.458-19.389,13.374-25.459c7.787-5.264,17.375-7.896,28.762-7.896c10.85,0,20.303,1.827,28.359,5.479l-5.639,20.303
			c-7.359-3.545-15.094-5.317-23.203-5.317c-4.137,0-7.682,0.753-10.635,2.256c-3.707,1.881-5.56,4.701-5.56,8.459
			c0,3.332,1.638,6.151,4.915,8.46c2.738,1.934,7.976,4.351,15.71,7.251c19.228,7.198,28.843,18.236,28.843,33.113
			c0,9.938-3.68,18.047-11.037,24.33c-8.111,6.93-19.391,10.394-33.838,10.394C1138.871,1024.58,1128.37,1022.271,1120.1,1017.651z"
			/>
		<path fill="#FFFFFF" d="M1309.189,1022.727l-1.692-42.539c-0.645-16.221-0.967-31.475-0.967-45.762h-0.483
			c-3.17,12.406-7.305,26.775-12.407,43.103l-13.535,43.345h-19.658l-11.843-43.022c-4.137-15.093-7.493-29.567-10.071-43.425
			h-0.322c-0.483,11.494-1.155,26.855-2.015,46.084l-1.934,42.217h-23.283l7.09-111.182h33.516l10.877,37.061
			c3.436,11.762,6.578,25.029,9.426,39.799h0.483c4.564-18.852,8.083-32.172,10.554-39.961l11.844-36.898h32.871l6.123,111.182
			H1309.189z"/>
	</g>
</g>
<g id="Capa_7">
</g>
</svg>
